<?xml version="1.0" encoding="UTF-8"?>
<svg id="Layer_2" data-name="Layer 2" xmlns="http://www.w3.org/2000/svg" viewBox="0 0 1920 1096.14">
  <defs>
    <style>
      .cls-1 {
        opacity: .53;
      }

      .cls-1, .cls-2 {
        fill: #765c43;
        stroke: #765c43;
      }

      .cls-1, .cls-2, .cls-3 {
        stroke-miterlimit: 10;
      }

      .cls-2 {
        stroke-width: 2px;
      }

      .cls-3 {
        stroke: #39553f;
      }

      .cls-3, .cls-4 {
        fill: #39553f;
      }

      .cls-4, .cls-5, .cls-6 {
        stroke-width: 0px;
      }

      .cls-5 {
        fill: #c6a788;
      }

      .cls-6 {
        fill: #fff7f8;
      }
    </style>
  </defs>
  <g id="baggrund">
    <rect class="cls-6" y="16.14" width="1920" height="1080"/>
  </g>
  <g id="Krukke">
    <path class="cls-5" d="M1777,325.14c-1.05,6.87-4.02,24.56-19,38.87-22.89,21.87-53.69,16.59-56,16.15-17.08-3.26-28.47-12.83-33.46-17.69-25.21-24.57-31.55-69.69-14.02-87.03,4.33-4.29,8.04-4.69,59.6-5.18,32.25-.31,42.58-.27,49.03,3.48,1.98,1.15,3.56,2.73,3.56,2.73,4.6,4.37,6.22,9.85,7.29,14.67,2.94,13.27,4.85,21.9,3,34Z"/>
  </g>
  <g id="Layer_3" data-name="Layer 3">
    <path class="cls-1" d="M1748.32,370.81s-16.72,11.06-43.82,8.82c-1.69-.14-4.43-.47-5.51-2.34-3.08-5.31,10.15-17.93,14.51-22.71,35.79-39.21,35.23-82.45,47.81-81.46,9.97.79,14.54,28.27,14.84,30.11,3.88,24.38-5.69,52.93-27.82,67.57Z"/>
  </g>
  <g id="snore">
    <line class="cls-2" x1="1661" y1="285.14" x2="1697" y2="16.14"/>
    <line class="cls-2" x1="1682.14" y1="271.17" x2="1704.09" y2="15.36"/>
    <line class="cls-2" x1="1763.23" y1="286.92" x2="1718" y2="16.14"/>
    <line class="cls-2" x1="1751.23" y1="266.92" x2="1714" y2=".14"/>
  </g>
  <g id="blade">
    <ellipse class="cls-4" cx="1668" cy="270.14" rx="4" ry="7"/>
    <ellipse class="cls-4" cx="1675" cy="271.14" rx="4" ry="7" transform="translate(-21.78 279.69) rotate(-9.48)"/>
    <ellipse class="cls-4" cx="1682" cy="271.14" rx="4" ry="7"/>
    <ellipse class="cls-4" cx="1688" cy="271.14" rx="7" ry="4" transform="translate(1273.56 1929.78) rotate(-85.1)"/>
    <ellipse class="cls-4" cx="1696" cy="271.14" rx="4" ry="7"/>
    <ellipse class="cls-4" cx="1700" cy="280.14" rx="4" ry="7"/>
    <ellipse class="cls-4" cx="1704" cy="270.14" rx="7" ry="4" transform="translate(1289.19 1944.81) rotate(-85.1)"/>
    <ellipse class="cls-4" cx="1711" cy="273.14" rx="4" ry="7" transform="translate(-21.33 239.13) rotate(-7.95)"/>
    <ellipse class="cls-4" cx="1711.4" cy="265.17" rx="4" ry="7" transform="translate(45.34 737.86) rotate(-24.65)"/>
    <ellipse class="cls-4" cx="1719" cy="271.14" rx="7" ry="4" transform="translate(1075.16 1887.91) rotate(-77.25)"/>
    <ellipse class="cls-4" cx="1726" cy="273.14" rx="4" ry="7"/>
    <ellipse class="cls-4" cx="1728" cy="265.14" rx="4" ry="7"/>
    <ellipse class="cls-4" cx="1734" cy="275.14" rx="4" ry="7"/>
    <ellipse class="cls-4" cx="1732" cy="270.14" rx="4" ry="7"/>
    <ellipse class="cls-4" cx="1738" cy="268.14" rx="4" ry="7"/>
    <ellipse class="cls-4" cx="1744" cy="268.14" rx="7" ry="4" transform="translate(1327.76 1982.83) rotate(-85.1)"/>
    <ellipse class="cls-4" cx="1742.86" cy="277.06" rx="7" ry="4" transform="translate(1317.83 1989.86) rotate(-85.1)"/>
    <ellipse class="cls-4" cx="1749.86" cy="271.06" rx="7" ry="4" transform="translate(1330.21 1991.34) rotate(-85.1)"/>
    <ellipse class="cls-4" cx="1756.86" cy="267.06" rx="7" ry="4" transform="translate(1340.6 1994.66) rotate(-85.1)"/>
    <ellipse class="cls-4" cx="1755.86" cy="275.06" rx="7" ry="4" transform="translate(1331.71 2000.98) rotate(-85.1)"/>
    <ellipse class="cls-4" cx="1764.86" cy="272.06" rx="7" ry="4" transform="translate(1342.93 2007.2) rotate(-85.1)"/>
    <ellipse class="cls-4" cx="1722.86" cy="287.06" rx="7" ry="4" transform="translate(1289.58 1979.08) rotate(-85.1)"/>
    <ellipse class="cls-4" cx="1658.86" cy="273.06" rx="7" ry="4" transform="translate(910.31 1778.4) rotate(-72.91)"/>
    <ellipse class="cls-4" cx="1677.94" cy="287.44" rx="7" ry="4" transform="translate(1248.11 1934.67) rotate(-85.1)"/>
    <ellipse class="cls-4" cx="1685.71" cy="296.44" rx="4" ry="7" transform="translate(-25.8 281.8) rotate(-9.48)"/>
    <ellipse class="cls-4" cx="1677.71" cy="313.44" rx="7" ry="4" transform="translate(788.57 1770.28) rotate(-69.19)"/>
    <ellipse class="cls-4" cx="1685.71" cy="328.44" rx="4" ry="7" transform="translate(-31.23 368.55) rotate(-12.36)"/>
    <line class="cls-3" x1="1684.5" y1="420.64" x2="1681.68" y2="273.54"/>
    <path class="cls-3" d="M1699.5,459.64c-.65-.16,26.03-67.23,14-148-3.68-24.7-9.53-40.99-9.97-40.89-.8.17,17.72,53.86,11.97,119.89-3.69,42.42-15.59,69.1-16,69Z"/>
    <path class="cls-3" d="M1685.5,438.64c-3.95-8.74-8.07-19.82-11-33-3.56-16-4.26-30.1-4-41-.26,10.9.44,25,4,41,2.93,13.18,7.05,24.26,11,33Z"/>
    <path class="cls-3" d="M1683.5,517.64c16.03-11.92,27.16-24.63,35-36,57.41-83.31,8.32-196.6,1.77-211.15,20.38,42.94,24.51,80.29,25.23,102.15.75,22.77,1.36,49.77-12,81-14.39,33.65-37.27,54.16-50,64Z"/>
    <path class="cls-3" d="M1782.84,408.32c-6.52-15.67-13.28-35.58-17.97-59.29-5.69-28.78-6.57-54.22-5.86-73.89-.7,19.67.17,45.11,5.86,73.89,4.69,23.71,11.45,43.62,17.97,59.29Z"/>
    <line class="cls-3" x1="1722.5" y1="487.64" x2="1728.79" y2="377.24"/>
    <path class="cls-3" d="M1756.5,550.64c-9.7-30.19-10.81-54.39-10-71,.77-15.74,3.07-20.96,7-54,2.13-17.93,4.66-39.19,5-56,.43-20.79-2.13-52.42-18.08-92.17,16.73,42.76,19.11,77.27,18.08,101.17-1.99,46.27-17.85,78.08-10,135,2.19,15.89,5.54,28.71,8,37Z"/>
    <ellipse class="cls-4" cx="1681" cy="347.14" rx="7" ry="4" transform="translate(855.14 1851.87) rotate(-72.91)"/>
    <ellipse class="cls-4" cx="1680" cy="366.14" rx="7" ry="4" transform="translate(1094.25 1982.73) rotate(-82.38)"/>
    <ellipse class="cls-4" cx="1687.7" cy="387.99" rx="4" ry="7" transform="translate(32.11 895.83) rotate(-30)"/>
    <ellipse class="cls-4" cx="1682.7" cy="402.99" rx="7" ry="4" transform="translate(1060.07 2017.37) rotate(-82.38)"/>
    <ellipse class="cls-4" cx="1685.7" cy="420.99" rx="7" ry="4" transform="translate(1044.83 2035.95) rotate(-82.38)"/>
    <ellipse class="cls-4" cx="1668.37" cy="369.3" rx="3.94" ry="1.91" transform="translate(1081.03 1973.94) rotate(-82.38)"/>
    <ellipse class="cls-4" cx="1672.7" cy="374.99" rx="1.91" ry="3.94" transform="translate(-.61 747.27) rotate(-25.18)"/>
    <ellipse class="cls-4" cx="1669.11" cy="385.42" rx="3.94" ry="1.91" transform="translate(1065.69 1988.65) rotate(-82.38)"/>
    <ellipse class="cls-4" cx="1670.11" cy="396.42" rx="3.94" ry="1.91" transform="translate(1055.66 1999.18) rotate(-82.38)"/>
    <ellipse class="cls-4" cx="1674.54" cy="391.06" rx="1.91" ry="3.94" transform="translate(55.93 971.69) rotate(-32.88)"/>
    <ellipse class="cls-4" cx="1672.31" cy="406.07" rx="3.94" ry="1.91" transform="translate(1048 2009.73) rotate(-82.38)"/>
    <ellipse class="cls-4" cx="1675.31" cy="417.07" rx="3.94" ry="1.91" transform="translate(1039.7 2022.25) rotate(-82.38)"/>
    <ellipse class="cls-4" cx="1678.31" cy="410.07" rx="1.91" ry="3.94" transform="translate(93.99 1099.13) rotate(-37.24)"/>
    <ellipse class="cls-4" cx="1681.31" cy="435.07" rx="3.94" ry="1.91" transform="translate(1027.07 2043.81) rotate(-82.38)"/>
    <ellipse class="cls-4" cx="1683.31" cy="426.07" rx="1.91" ry="3.94" transform="translate(191.75 1315.07) rotate(-45)"/>
    <ellipse class="cls-4" cx="1677.97" cy="426.26" rx="3.94" ry="1.91" transform="translate(1032.89 2032.86) rotate(-82.38)"/>
    <ellipse class="cls-4" cx="1706" cy="298.14" rx="7" ry="4" transform="translate(1038.69 1896.27) rotate(-77.25)"/>
    <ellipse class="cls-4" cx="1710" cy="319.14" rx="7" ry="4" transform="translate(742.16 1764.56) rotate(-66.77)"/>
    <ellipse class="cls-4" cx="1716.5" cy="305.66" rx="4" ry="7" transform="translate(77.14 899.2) rotate(-30)"/>
    <ellipse class="cls-4" cx="1711.16" cy="335.71" rx="7" ry="4" transform="translate(1151.44 1987.22) rotate(-82.38)"/>
    <ellipse class="cls-4" cx="1713.16" cy="353.71" rx="7" ry="4" transform="translate(712.31 1788.39) rotate(-66.77)"/>
    <ellipse class="cls-4" cx="1719.16" cy="337.71" rx="4" ry="7" transform="translate(-11.19 612.36) rotate(-20.13)"/>
    <ellipse class="cls-4" cx="1711.65" cy="378.39" rx="7" ry="4" transform="translate(688.71 1801.95) rotate(-66.77)"/>
    <ellipse class="cls-4" cx="1717.65" cy="396.39" rx="4" ry="7" transform="translate(-23.48 120.87) rotate(-4)"/>
    <ellipse class="cls-4" cx="1705.82" cy="420.17" rx="4" ry="7" transform="translate(-25.17 120.1) rotate(-4)"/>
    <ellipse class="cls-4" cx="1712.82" cy="431.17" rx="4" ry="7" transform="translate(-25.92 120.61) rotate(-4)"/>
    <ellipse class="cls-4" cx="1700.3" cy="442.42" rx="7" ry="4" transform="translate(467.01 1693.71) rotate(-60)"/>
    <ellipse class="cls-4" cx="1703.3" cy="457.42" rx="4" ry="7" transform="translate(-27.77 120.01) rotate(-4)"/>
    <ellipse class="cls-4" cx="1711" cy="284.14" rx="4" ry="7" transform="translate(87.16 893.57) rotate(-30)"/>
    <ellipse class="cls-4" cx="1707.54" cy="274.67" rx="4" ry="7" transform="translate(91.43 890.57) rotate(-30)"/>
    <ellipse class="cls-4" cx="1703.21" cy="281.19" rx="4" ry="7" transform="translate(87.59 889.28) rotate(-30)"/>
    <ellipse class="cls-4" cx="1689.93" cy="277.23" rx="4" ry="7" transform="translate(87.79 882.11) rotate(-30)"/>
    <ellipse class="cls-4" cx="1667.93" cy="274.23" rx="7" ry="4" transform="translate(41.81 735.67) rotate(-25.18)"/>
    <ellipse class="cls-4" cx="1720.01" cy="271.78" rx="4" ry="7" transform="translate(854.8 1782.97) rotate(-69.19)"/>
    <ellipse class="cls-4" cx="1729.01" cy="303.78" rx="7" ry="4" transform="translate(1278.55 2000.49) rotate(-85.1)"/>
    <ellipse class="cls-4" cx="1734.01" cy="291.78" rx="4" ry="7" transform="translate(176.92 1108.72) rotate(-37.24)"/>
    <ellipse class="cls-4" cx="1719.01" cy="275.78" rx="7" ry="4" transform="translate(1070.65 1891.54) rotate(-77.25)"/>
    <ellipse class="cls-4" cx="1733.01" cy="313.78" rx="7" ry="4" transform="translate(1272.25 2013.63) rotate(-85.1)"/>
    <ellipse class="cls-4" cx="1736.01" cy="306.78" rx="4" ry="7" transform="translate(79.19 909.11) rotate(-30)"/>
    <ellipse class="cls-4" cx="1735.69" cy="330.53" rx="7" ry="4" transform="translate(1258.01 2031.61) rotate(-85.1)"/>
    <ellipse class="cls-4" cx="1745.69" cy="341.53" rx="4" ry="7" transform="translate(-10.89 621.73) rotate(-20.13)"/>
    <ellipse class="cls-4" cx="1740.69" cy="364.53" rx="7" ry="4" transform="translate(1228.7 2067.69) rotate(-85.1)"/>
    <ellipse class="cls-4" cx="1749.75" cy="375.19" rx="4" ry="7" transform="translate(-37.39 467.59) rotate(-15.06)"/>
    <ellipse class="cls-4" cx="1741.91" cy="392.77" rx="7" ry="4" transform="translate(1201.67 2094.74) rotate(-85.1)"/>
    <ellipse class="cls-4" cx="1748.91" cy="408.77" rx="4" ry="7" transform="translate(-46.14 468.52) rotate(-15.06)"/>
    <ellipse class="cls-4" cx="1737.91" cy="420.77" rx="7" ry="4" transform="translate(504.56 1715.47) rotate(-60)"/>
    <ellipse class="cls-4" cx="1742.22" cy="438.82" rx="7" ry="4" transform="translate(1204.93 2153.24) rotate(-86.74)"/>
    <ellipse class="cls-4" cx="1728.22" cy="454.82" rx="7" ry="4" transform="translate(29.92 1011.04) rotate(-32.88)"/>
    <ellipse class="cls-4" cx="1727.81" cy="473.61" rx="7" ry="4" transform="translate(1108.24 2154.61) rotate(-85.1)"/>
    <ellipse class="cls-4" cx="1712.81" cy="496.61" rx="7" ry="4" transform="translate(1071.6 2160.7) rotate(-85.1)"/>
    <ellipse class="cls-4" cx="1695.81" cy="512.61" rx="7" ry="4" transform="translate(1040.12 2158.39) rotate(-85.1)"/>
    <ellipse class="cls-4" cx="1685.81" cy="512.61" rx="7" ry="4" transform="translate(33.47 1124.57) rotate(-37.24)"/>
    <ellipse class="cls-4" cx="1697.81" cy="500.61" rx="7" ry="4" transform="translate(-71.76 458.4) rotate(-15.06)"/>
    <ellipse class="cls-4" cx="1711.81" cy="482.61" rx="7" ry="4" transform="translate(-60.71 336.45) rotate(-11.03)"/>
    <ellipse class="cls-4" cx="1731.11" cy="380.62" rx="1.91" ry="3.94" transform="translate(70.66 1000.72) rotate(-32.88)"/>
    <ellipse class="cls-4" cx="1730.11" cy="390.62" rx="1.91" ry="3.94" transform="translate(65.07 1001.78) rotate(-32.88)"/>
    <ellipse class="cls-4" cx="1725.11" cy="402.62" rx="3.94" ry="1.91" transform="translate(674.6 1829) rotate(-66.77)"/>
    <ellipse class="cls-4" cx="1724.75" cy="418.44" rx="3.94" ry="1.91" transform="translate(873.43 1975.72) rotate(-74.97)"/>
    <ellipse class="cls-4" cx="1728.75" cy="410.44" rx="1.91" ry="3.94" transform="translate(-47.27 463.34) rotate(-15.06)"/>
    <ellipse class="cls-4" cx="1727.95" cy="430.06" rx="1.91" ry="3.94" transform="translate(-52.39 463.81) rotate(-15.06)"/>
    <ellipse class="cls-4" cx="1726.95" cy="442.06" rx="1.91" ry="3.94" transform="translate(-55.55 463.96) rotate(-15.06)"/>
    <ellipse class="cls-4" cx="1722.56" cy="450.5" rx="3.94" ry="1.91" transform="translate(693.53 1903.51) rotate(-69.35)"/>
    <ellipse class="cls-4" cx="1721.76" cy="466.62" rx="3.94" ry="1.91" transform="translate(677.93 1913.2) rotate(-69.35)"/>
    <ellipse class="cls-4" cx="1723.96" cy="482.95" rx="1.91" ry="3.94" transform="translate(-66.27 464.59) rotate(-15.06)"/>
    <ellipse class="cls-4" cx="1720.96" cy="487.95" rx="3.94" ry="1.91" transform="translate(754.39 1993.12) rotate(-73.12)"/>
    <ellipse class="cls-4" cx="1749.24" cy="290.36" rx="4" ry="7" transform="translate(38.28 755.94) rotate(-24.65)"/>
    <ellipse class="cls-4" cx="1749.24" cy="311.36" rx="4" ry="7"/>
    <ellipse class="cls-4" cx="1757.24" cy="323.36" rx="4" ry="7" transform="translate(162.55 1129.22) rotate(-37.24)"/>
    <ellipse class="cls-4" cx="1755" cy="354.14" rx="7" ry="4" transform="translate(957.94 1957.3) rotate(-74.97)"/>
    <ellipse class="cls-4" cx="1763.34" cy="371.93" rx="4" ry="7" transform="translate(-36.07 471.01) rotate(-15.06)"/>
    <ellipse class="cls-4" cx="1753.34" cy="390.93" rx="7" ry="4" transform="translate(769.2 1893.76) rotate(-69.35)"/>
    <ellipse class="cls-4" cx="1760.51" cy="406.09" rx="4" ry="7" transform="translate(-45.05 471.45) rotate(-15.06)"/>
    <ellipse class="cls-4" cx="1757.88" cy="425.98" rx="4" ry="7" transform="translate(-49.03 344.22) rotate(-11.03)"/>
    <ellipse class="cls-4" cx="1754" cy="446.14" rx="4" ry="7"/>
    <ellipse class="cls-4" cx="1748.25" cy="426.54" rx="7" ry="4" transform="translate(732.58 1912.05) rotate(-69.35)"/>
    <ellipse class="cls-4" cx="1749.79" cy="471.11" rx="4" ry="7" transform="translate(-57.81 343.5) rotate(-11.03)"/>
    <ellipse class="cls-4" cx="1741.79" cy="490.11" rx="7" ry="4" transform="translate(905.1 2094.48) rotate(-78.17)"/>
    <ellipse class="cls-4" cx="1749.71" cy="503.31" rx="4" ry="7" transform="translate(-70.68 471.98) rotate(-15.06)"/>
    <ellipse class="cls-4" cx="1745.71" cy="522.31" rx="7" ry="4" transform="translate(876.7 2123.91) rotate(-78.17)"/>
    <ellipse class="cls-4" cx="1749.71" cy="539.31" rx="7" ry="4" transform="translate(863.25 2141.34) rotate(-78.17)"/>
    <ellipse class="cls-4" cx="1759.71" cy="548.31" rx="4" ry="7" transform="translate(54.11 1246.99) rotate(-39.58)"/>
    <ellipse class="cls-4" cx="1762.47" cy="298.89" rx="4" ry="7" transform="translate(35.93 762.23) rotate(-24.65)"/>
    <ellipse class="cls-4" cx="1758.47" cy="310.89" rx="7" ry="4" transform="translate(1298.4 2036.35) rotate(-85.1)"/>
    <ellipse class="cls-4" cx="1766.68" cy="341.43" rx="4" ry="7" transform="translate(18.57 767.86) rotate(-24.65)"/>
    <ellipse class="cls-4" cx="1771.48" cy="362.19" rx="4" ry="7" transform="translate(141.95 1145.75) rotate(-37.24)"/>
    <ellipse class="cls-4" cx="1770.9" cy="383.35" rx="4" ry="7" transform="translate(-22.44 124.55) rotate(-4)"/>
    <ellipse class="cls-4" cx="1780.9" cy="395.35" rx="4" ry="7" transform="translate(123.81 1158.2) rotate(-37.24)"/>
    <ellipse class="cls-4" cx="1780.5" cy="410.93" rx="4" ry="7" transform="translate(-24.34 125.29) rotate(-4)"/>
    <path class="cls-3" d="M1660.5,363.64c-4.81-15.91-6.45-29.38-7-39-.49-8.56-.2-15.49,0-20,.58-13.2,2.2-24.25,3.72-32.37-2.82,13.15-5.22,31.15-3.72,52.37,1.09,15.34,3.94,28.52,7,39Z"/>
    <ellipse class="cls-4" cx="1651.79" cy="296.74" rx="7" ry="4" transform="translate(787.48 1735.29) rotate(-69.19)"/>
    <ellipse class="cls-4" cx="1656.79" cy="317.74" rx="4" ry="7" transform="translate(-8.13 589.67) rotate(-20.13)"/>
    <ellipse class="cls-4" cx="1654.79" cy="282.74" rx="7" ry="4" transform="translate(284.75 1252.92) rotate(-45)"/>
    <ellipse class="cls-4" cx="1691.79" cy="266.74" rx="7" ry="4" transform="translate(841.31 1753.33) rotate(-69.19)"/>
    <ellipse class="cls-4" cx="1719.79" cy="265.74" rx="7" ry="4" transform="translate(860.29 1778.86) rotate(-69.19)"/>
    <ellipse class="cls-4" cx="1658.79" cy="337.74" rx="4" ry="7" transform="translate(-33.85 363) rotate(-12.36)"/>
    <ellipse class="cls-4" cx="1652.79" cy="353.74" rx="7" ry="4" transform="translate(734.84 1772.97) rotate(-69.19)"/>
    <ellipse class="cls-4" cx="1661.79" cy="363.74" rx="4" ry="7" transform="translate(-39.34 364.24) rotate(-12.36)"/>
  </g>
</svg>