<?xml version="1.0" encoding="UTF-8"?>
<svg id="Layer_2" data-name="Layer 2" xmlns="http://www.w3.org/2000/svg" viewBox="0 0 1920 1258.67">
  <defs>
    <style>
      .cls-1 {
        opacity: .53;
      }

      .cls-1, .cls-2 {
        fill: #765c43;
        stroke: #765c43;
      }

      .cls-1, .cls-2, .cls-3 {
        stroke-miterlimit: 10;
      }

      .cls-2 {
        stroke-width: 2px;
      }

      .cls-3 {
        stroke: #39553f;
      }

      .cls-3, .cls-4 {
        fill: #39553f;
      }

      .cls-4, .cls-5, .cls-6 {
        stroke-width: 0px;
      }

      .cls-5 {
        fill: #c6a788;
      }

      .cls-6 {
        fill: #fff7f8;
      }
    </style>
  </defs>
  <g id="baggrund">
    <rect class="cls-6" y="16.14" width="1920" height="1080"/>
    <path class="cls-5" d="M366.36,1029.53c-1.05,6.87-4.02,24.56-19,38.87-22.89,21.87-53.69,16.59-56,16.15-17.08-3.26-28.47-12.83-33.46-17.69-25.21-24.57-31.55-69.69-14.02-87.03,4.33-4.29,8.04-4.69,59.6-5.18,32.25-.31,42.58-.27,49.03,3.48,1.98,1.15,3.56,2.73,3.56,2.73,4.6,4.37,6.22,9.85,7.29,14.67,2.94,13.27,4.85,21.9,3,34Z"/>
    <path class="cls-1" d="M337.68,1075.21s-16.72,11.06-43.82,8.82c-1.69-.14-4.43-.47-5.51-2.34-3.08-5.31,10.15-17.93,14.51-22.71,35.79-39.21,35.23-82.45,47.81-81.46,9.97.79,14.54,28.27,14.84,30.11,3.88,24.38-5.69,52.93-27.82,67.57Z"/>
    <ellipse class="cls-4" cx="257.36" cy="974.53" rx="4" ry="7"/>
    <ellipse class="cls-4" cx="264.36" cy="975.53" rx="4" ry="7" transform="translate(-157.12 56.89) rotate(-9.48)"/>
    <ellipse class="cls-4" cx="271.36" cy="975.53" rx="4" ry="7"/>
    <ellipse class="cls-4" cx="277.36" cy="975.53" rx="7" ry="4" transform="translate(-718.31 1168.49) rotate(-85.1)"/>
    <ellipse class="cls-4" cx="285.36" cy="975.53" rx="4" ry="7"/>
    <ellipse class="cls-4" cx="289.36" cy="984.53" rx="4" ry="7"/>
    <ellipse class="cls-4" cx="293.36" cy="974.53" rx="7" ry="4" transform="translate(-702.68 1183.52) rotate(-85.1)"/>
    <ellipse class="cls-4" cx="300.36" cy="977.53" rx="4" ry="7" transform="translate(-132.24 50.9) rotate(-7.95)"/>
    <ellipse class="cls-4" cx="300.77" cy="969.57" rx="4" ry="7" transform="translate(-376.94 213.76) rotate(-24.65)"/>
    <ellipse class="cls-4" cx="308.36" cy="975.53" rx="7" ry="4" transform="translate(-711.17 1060.99) rotate(-77.25)"/>
    <ellipse class="cls-4" cx="315.36" cy="977.53" rx="4" ry="7"/>
    <ellipse class="cls-4" cx="317.36" cy="969.53" rx="4" ry="7"/>
    <ellipse class="cls-4" cx="323.36" cy="979.53" rx="4" ry="7"/>
    <ellipse class="cls-4" cx="321.36" cy="974.53" rx="4" ry="7"/>
    <ellipse class="cls-4" cx="327.36" cy="972.53" rx="4" ry="7"/>
    <ellipse class="cls-4" cx="333.36" cy="972.53" rx="7" ry="4" transform="translate(-664.11 1221.54) rotate(-85.1)"/>
    <ellipse class="cls-4" cx="332.22" cy="981.45" rx="7" ry="4" transform="translate(-674.04 1228.56) rotate(-85.1)"/>
    <ellipse class="cls-4" cx="339.22" cy="975.45" rx="7" ry="4" transform="translate(-661.66 1230.05) rotate(-85.1)"/>
    <ellipse class="cls-4" cx="346.22" cy="971.45" rx="7" ry="4" transform="translate(-651.27 1233.37) rotate(-85.1)"/>
    <ellipse class="cls-4" cx="345.22" cy="979.45" rx="7" ry="4" transform="translate(-660.16 1239.69) rotate(-85.1)"/>
    <ellipse class="cls-4" cx="354.22" cy="976.45" rx="7" ry="4" transform="translate(-648.94 1245.91) rotate(-85.1)"/>
    <ellipse class="cls-4" cx="312.22" cy="991.45" rx="7" ry="4" transform="translate(-702.29 1217.78) rotate(-85.1)"/>
    <ellipse class="cls-4" cx="248.22" cy="977.45" rx="7" ry="4" transform="translate(-759.01 927.43) rotate(-72.91)"/>
    <ellipse class="cls-4" cx="267.3" cy="991.84" rx="7" ry="4" transform="translate(-743.76 1173.37) rotate(-85.1)"/>
    <ellipse class="cls-4" cx="275.07" cy="1000.84" rx="4" ry="7" transform="translate(-161.14 59) rotate(-9.48)"/>
    <ellipse class="cls-4" cx="267.07" cy="1017.84" rx="7" ry="4" transform="translate(-779.24 905.8) rotate(-69.19)"/>
    <ellipse class="cls-4" cx="275.07" cy="1032.84" rx="4" ry="7" transform="translate(-214.76 82.85) rotate(-12.36)"/>
    <line class="cls-3" x1="273.86" y1="1125.03" x2="271.04" y2="977.93"/>
    <path class="cls-3" d="M288.86,1164.03c-.65-.16,26.03-67.23,14-148-3.68-24.7-9.53-40.99-9.97-40.89-.8.17,17.72,53.86,11.97,119.89-3.69,42.42-15.59,69.1-16,69Z"/>
    <path class="cls-3" d="M274.86,1143.03c-3.95-8.74-8.07-19.82-11-33-3.56-16-4.26-30.1-4-41-.26,10.9.44,25,4,41,2.93,13.18,7.05,24.26,11,33Z"/>
    <path class="cls-3" d="M272.86,1222.03c16.03-11.92,27.16-24.63,35-36,57.41-83.31,8.32-196.6,1.77-211.15,20.38,42.94,24.51,80.29,25.23,102.15.75,22.77,1.36,49.77-12,81-14.39,33.65-37.27,54.16-50,64Z"/>
    <path class="cls-3" d="M372.2,1112.72c-6.52-15.67-13.28-35.58-17.97-59.29-5.69-28.78-6.57-54.22-5.86-73.89-.7,19.67.17,45.11,5.86,73.89,4.69,23.71,11.45,43.62,17.97,59.29Z"/>
    <line class="cls-3" x1="311.86" y1="1192.03" x2="318.16" y2="1081.63"/>
    <path class="cls-3" d="M345.86,1255.03c-9.7-30.19-10.81-54.39-10-71,.77-15.74,3.07-20.96,7-54,2.13-17.93,4.66-39.19,5-56,.43-20.79-2.13-52.42-18.08-92.17,16.73,42.76,19.11,77.27,18.08,101.17-1.99,46.27-17.85,78.08-10,135,2.19,15.89,5.54,28.71,8,37Z"/>
    <ellipse class="cls-4" cx="270.36" cy="1051.53" rx="7" ry="4" transform="translate(-814.19 1000.9) rotate(-72.91)"/>
    <ellipse class="cls-4" cx="269.36" cy="1070.53" rx="7" ry="4" transform="translate(-827.44 1195.51) rotate(-82.38)"/>
    <ellipse class="cls-4" cx="277.06" cy="1092.39" rx="4" ry="7" transform="translate(-509.07 284.88) rotate(-30)"/>
    <ellipse class="cls-4" cx="272.06" cy="1107.39" rx="7" ry="4" transform="translate(-861.62 1230.15) rotate(-82.38)"/>
    <ellipse class="cls-4" cx="275.06" cy="1125.39" rx="7" ry="4" transform="translate(-876.86 1248.74) rotate(-82.38)"/>
    <ellipse class="cls-4" cx="257.73" cy="1073.69" rx="3.94" ry="1.91" transform="translate(-840.66 1186.73) rotate(-82.38)"/>
    <ellipse class="cls-4" cx="262.06" cy="1079.39" rx="1.91" ry="3.94" transform="translate(-434.32 214.05) rotate(-25.18)"/>
    <ellipse class="cls-4" cx="258.47" cy="1089.81" rx="3.94" ry="1.91" transform="translate(-856 1201.44) rotate(-82.38)"/>
    <ellipse class="cls-4" cx="259.47" cy="1100.81" rx="3.94" ry="1.91" transform="translate(-866.03 1211.97) rotate(-82.38)"/>
    <ellipse class="cls-4" cx="263.91" cy="1095.46" rx="1.91" ry="3.94" transform="translate(-552.41 318.73) rotate(-32.88)"/>
    <ellipse class="cls-4" cx="261.67" cy="1110.46" rx="3.94" ry="1.91" transform="translate(-873.69 1222.52) rotate(-82.38)"/>
    <ellipse class="cls-4" cx="264.67" cy="1121.46" rx="3.94" ry="1.91" transform="translate(-881.99 1235.04) rotate(-82.38)"/>
    <ellipse class="cls-4" cx="267.67" cy="1114.46" rx="1.91" ry="3.94" transform="translate(-619.79 389.15) rotate(-37.24)"/>
    <ellipse class="cls-4" cx="270.67" cy="1139.46" rx="3.94" ry="1.91" transform="translate(-894.63 1256.59) rotate(-82.38)"/>
    <ellipse class="cls-4" cx="272.67" cy="1130.46" rx="1.91" ry="3.94" transform="translate(-719.49 523.91) rotate(-45)"/>
    <ellipse class="cls-4" cx="267.33" cy="1130.66" rx="3.94" ry="1.91" transform="translate(-888.8 1245.65) rotate(-82.38)"/>
    <ellipse class="cls-4" cx="295.36" cy="1002.53" rx="7" ry="4" transform="translate(-747.64 1069.35) rotate(-77.25)"/>
    <ellipse class="cls-4" cx="299.36" cy="1023.53" rx="7" ry="4" transform="translate(-759.26 894.84) rotate(-66.77)"/>
    <ellipse class="cls-4" cx="305.86" cy="1010.05" rx="4" ry="7" transform="translate(-464.05 288.25) rotate(-30)"/>
    <ellipse class="cls-4" cx="300.52" cy="1040.1" rx="7" ry="4" transform="translate(-770.25 1200) rotate(-82.38)"/>
    <ellipse class="cls-4" cx="302.52" cy="1058.1" rx="7" ry="4" transform="translate(-789.11 918.68) rotate(-66.77)"/>
    <ellipse class="cls-4" cx="308.52" cy="1042.1" rx="4" ry="7" transform="translate(-339.83 169.87) rotate(-20.13)"/>
    <ellipse class="cls-4" cx="301.01" cy="1082.79" rx="7" ry="4" transform="translate(-812.71 932.23) rotate(-66.77)"/>
    <ellipse class="cls-4" cx="307.01" cy="1100.79" rx="4" ry="7" transform="translate(-76.09 24.12) rotate(-4)"/>
    <ellipse class="cls-4" cx="295.18" cy="1124.57" rx="4" ry="7" transform="translate(-77.78 23.35) rotate(-4)"/>
    <ellipse class="cls-4" cx="302.18" cy="1135.57" rx="4" ry="7" transform="translate(-78.53 23.86) rotate(-4)"/>
    <ellipse class="cls-4" cx="289.67" cy="1146.81" rx="7" ry="4" transform="translate(-848.33 824.26) rotate(-60)"/>
    <ellipse class="cls-4" cx="292.67" cy="1161.81" rx="4" ry="7" transform="translate(-80.39 23.26) rotate(-4)"/>
    <ellipse class="cls-4" cx="300.36" cy="988.53" rx="4" ry="7" transform="translate(-454.03 282.62) rotate(-30)"/>
    <ellipse class="cls-4" cx="296.9" cy="979.07" rx="4" ry="7" transform="translate(-449.76 279.62) rotate(-30)"/>
    <ellipse class="cls-4" cx="292.58" cy="985.58" rx="4" ry="7" transform="translate(-453.59 278.33) rotate(-30)"/>
    <ellipse class="cls-4" cx="279.29" cy="981.62" rx="4" ry="7" transform="translate(-453.39 271.16) rotate(-30)"/>
    <ellipse class="cls-4" cx="257.29" cy="978.62" rx="7" ry="4" transform="translate(-391.9 202.45) rotate(-25.18)"/>
    <ellipse class="cls-4" cx="309.38" cy="976.17" rx="4" ry="7" transform="translate(-713.02 918.49) rotate(-69.19)"/>
    <ellipse class="cls-4" cx="318.38" cy="1008.17" rx="7" ry="4" transform="translate(-713.32 1239.2) rotate(-85.1)"/>
    <ellipse class="cls-4" cx="323.38" cy="996.17" rx="4" ry="7" transform="translate(-536.86 398.74) rotate(-37.24)"/>
    <ellipse class="cls-4" cx="308.38" cy="980.17" rx="7" ry="4" transform="translate(-715.68 1064.62) rotate(-77.25)"/>
    <ellipse class="cls-4" cx="322.38" cy="1018.17" rx="7" ry="4" transform="translate(-719.62 1252.33) rotate(-85.1)"/>
    <ellipse class="cls-4" cx="325.38" cy="1011.17" rx="4" ry="7" transform="translate(-461.99 298.16) rotate(-30)"/>
    <ellipse class="cls-4" cx="325.06" cy="1034.92" rx="7" ry="4" transform="translate(-733.86 1270.32) rotate(-85.1)"/>
    <ellipse class="cls-4" cx="335.06" cy="1045.92" rx="4" ry="7" transform="translate(-339.53 179.23) rotate(-20.13)"/>
    <ellipse class="cls-4" cx="330.06" cy="1068.92" rx="7" ry="4" transform="translate(-763.17 1306.39) rotate(-85.1)"/>
    <ellipse class="cls-4" cx="339.12" cy="1079.58" rx="4" ry="7" transform="translate(-268.9 125.21) rotate(-15.06)"/>
    <ellipse class="cls-4" cx="331.28" cy="1097.17" rx="7" ry="4" transform="translate(-790.2 1333.44) rotate(-85.1)"/>
    <ellipse class="cls-4" cx="338.28" cy="1113.17" rx="4" ry="7" transform="translate(-277.65 126.15) rotate(-15.06)"/>
    <ellipse class="cls-4" cx="327.28" cy="1125.17" rx="7" ry="4" transform="translate(-810.79 846.01) rotate(-60)"/>
    <ellipse class="cls-4" cx="331.58" cy="1143.22" rx="7" ry="4" transform="translate(-828.66 1409.19) rotate(-86.74)"/>
    <ellipse class="cls-4" cx="317.58" cy="1159.22" rx="7" ry="4" transform="translate(-578.43 358.09) rotate(-32.88)"/>
    <ellipse class="cls-4" cx="317.17" cy="1178" rx="7" ry="4" transform="translate(-883.63 1393.32) rotate(-85.1)"/>
    <ellipse class="cls-4" cx="302.17" cy="1201" rx="7" ry="4" transform="translate(-920.27 1399.4) rotate(-85.1)"/>
    <ellipse class="cls-4" cx="285.17" cy="1217" rx="7" ry="4" transform="translate(-951.75 1397.1) rotate(-85.1)"/>
    <ellipse class="cls-4" cx="275.17" cy="1217" rx="7" ry="4" transform="translate(-680.31 414.59) rotate(-37.24)"/>
    <ellipse class="cls-4" cx="287.17" cy="1205" rx="7" ry="4" transform="translate(-303.27 116.02) rotate(-15.06)"/>
    <ellipse class="cls-4" cx="301.17" cy="1187" rx="7" ry="4" transform="translate(-221.55 79.56) rotate(-11.03)"/>
    <ellipse class="cls-4" cx="320.48" cy="1085.01" rx="1.91" ry="3.94" transform="translate(-537.68 347.77) rotate(-32.88)"/>
    <ellipse class="cls-4" cx="319.48" cy="1095.01" rx="1.91" ry="3.94" transform="translate(-543.27 348.83) rotate(-32.88)"/>
    <ellipse class="cls-4" cx="314.48" cy="1107.01" rx="3.94" ry="1.91" transform="translate(-826.82 959.28) rotate(-66.77)"/>
    <ellipse class="cls-4" cx="314.11" cy="1122.83" rx="3.94" ry="1.91" transform="translate(-851.77 1135.08) rotate(-74.97)"/>
    <ellipse class="cls-4" cx="318.11" cy="1114.83" rx="1.91" ry="3.94" transform="translate(-278.78 120.97) rotate(-15.06)"/>
    <ellipse class="cls-4" cx="317.31" cy="1134.46" rx="1.91" ry="3.94" transform="translate(-283.9 121.43) rotate(-15.06)"/>
    <ellipse class="cls-4" cx="316.31" cy="1146.46" rx="1.91" ry="3.94" transform="translate(-287.06 121.59) rotate(-15.06)"/>
    <ellipse class="cls-4" cx="311.92" cy="1154.89" rx="3.94" ry="1.91" transform="translate(-878.77 1039.49) rotate(-69.35)"/>
    <ellipse class="cls-4" cx="311.12" cy="1171.01" rx="3.94" ry="1.91" transform="translate(-894.37 1049.18) rotate(-69.35)"/>
    <ellipse class="cls-4" cx="313.32" cy="1187.34" rx="1.91" ry="3.94" transform="translate(-297.78 122.21) rotate(-15.06)"/>
    <ellipse class="cls-4" cx="310.32" cy="1192.34" rx="3.94" ry="1.91" transform="translate(-920.76 1143.13) rotate(-73.12)"/>
    <ellipse class="cls-4" cx="338.61" cy="994.75" rx="4" ry="7" transform="translate(-383.99 231.84) rotate(-24.65)"/>
    <ellipse class="cls-4" cx="338.61" cy="1015.75" rx="4" ry="7"/>
    <ellipse class="cls-4" cx="346.61" cy="1027.75" rx="4" ry="7" transform="translate(-551.23 419.23) rotate(-37.24)"/>
    <ellipse class="cls-4" cx="344.36" cy="1058.53" rx="7" ry="4" transform="translate(-767.26 1116.66) rotate(-74.97)"/>
    <ellipse class="cls-4" cx="352.71" cy="1076.32" rx="4" ry="7" transform="translate(-267.58 128.63) rotate(-15.06)"/>
    <ellipse class="cls-4" cx="342.71" cy="1095.32" rx="7" ry="4" transform="translate(-803.1 1029.74) rotate(-69.35)"/>
    <ellipse class="cls-4" cx="349.87" cy="1110.48" rx="4" ry="7" transform="translate(-276.56 129.07) rotate(-15.06)"/>
    <ellipse class="cls-4" cx="347.24" cy="1130.37" rx="4" ry="7" transform="translate(-209.87 87.32) rotate(-11.03)"/>
    <ellipse class="cls-4" cx="343.36" cy="1150.53" rx="4" ry="7"/>
    <ellipse class="cls-4" cx="337.61" cy="1130.94" rx="7" ry="4" transform="translate(-839.73 1048.03) rotate(-69.35)"/>
    <ellipse class="cls-4" cx="339.15" cy="1175.5" rx="4" ry="7" transform="translate(-218.65 86.61) rotate(-11.03)"/>
    <ellipse class="cls-4" cx="331.15" cy="1194.5" rx="7" ry="4" transform="translate(-905.87 1273.81) rotate(-78.17)"/>
    <ellipse class="cls-4" cx="339.07" cy="1207.7" rx="4" ry="7" transform="translate(-302.19 129.6) rotate(-15.06)"/>
    <ellipse class="cls-4" cx="335.07" cy="1226.7" rx="7" ry="4" transform="translate(-934.26 1303.25) rotate(-78.17)"/>
    <ellipse class="cls-4" cx="339.07" cy="1243.7" rx="7" ry="4" transform="translate(-947.72 1320.68) rotate(-78.17)"/>
    <ellipse class="cls-4" cx="349.07" cy="1252.7" rx="4" ry="7" transform="translate(-718.17 509.66) rotate(-39.58)"/>
    <ellipse class="cls-4" cx="351.83" cy="1003.28" rx="4" ry="7" transform="translate(-386.34 238.13) rotate(-24.65)"/>
    <ellipse class="cls-4" cx="347.83" cy="1015.28" rx="7" ry="4" transform="translate(-693.47 1275.05) rotate(-85.1)"/>
    <ellipse class="cls-4" cx="356.04" cy="1045.83" rx="4" ry="7" transform="translate(-403.7 243.76) rotate(-24.65)"/>
    <ellipse class="cls-4" cx="360.84" cy="1066.58" rx="4" ry="7" transform="translate(-571.83 435.76) rotate(-37.24)"/>
    <ellipse class="cls-4" cx="360.26" cy="1087.74" rx="4" ry="7" transform="translate(-75.05 27.8) rotate(-4)"/>
    <ellipse class="cls-4" cx="370.26" cy="1099.74" rx="4" ry="7" transform="translate(-589.97 448.22) rotate(-37.24)"/>
    <ellipse class="cls-4" cx="369.86" cy="1115.33" rx="4" ry="7" transform="translate(-76.95 28.54) rotate(-4)"/>
    <path class="cls-3" d="M249.86,1068.03c-4.81-15.91-6.45-29.38-7-39-.49-8.56-.2-15.49,0-20,.58-13.2,2.2-24.25,3.72-32.37-2.82,13.15-5.22,31.15-3.72,52.37,1.09,15.34,3.94,28.52,7,39Z"/>
    <ellipse class="cls-4" cx="241.15" cy="1001.13" rx="7" ry="4" transform="translate(-780.34 870.81) rotate(-69.19)"/>
    <ellipse class="cls-4" cx="246.15" cy="1022.13" rx="4" ry="7" transform="translate(-336.77 147.18) rotate(-20.13)"/>
    <ellipse class="cls-4" cx="244.15" cy="987.13" rx="7" ry="4" transform="translate(-626.5 461.76) rotate(-45)"/>
    <ellipse class="cls-4" cx="281.15" cy="971.13" rx="7" ry="4" transform="translate(-726.51 888.85) rotate(-69.19)"/>
    <ellipse class="cls-4" cx="309.15" cy="970.13" rx="7" ry="4" transform="translate(-707.52 914.38) rotate(-69.19)"/>
    <ellipse class="cls-4" cx="248.15" cy="1042.13" rx="4" ry="7" transform="translate(-217.38 77.3) rotate(-12.36)"/>
    <ellipse class="cls-4" cx="242.15" cy="1058.13" rx="7" ry="4" transform="translate(-832.97 908.49) rotate(-69.19)"/>
    <ellipse class="cls-4" cx="251.15" cy="1068.13" rx="4" ry="7" transform="translate(-222.88 78.54) rotate(-12.36)"/>
    <path class="cls-5" d="M622.36,953.53c-1.05,6.87-4.02,24.56-19,38.87-22.89,21.87-53.69,16.59-56,16.15-17.08-3.26-28.47-12.83-33.46-17.69-25.21-24.57-31.55-69.69-14.02-87.03,4.33-4.29,8.04-4.69,59.6-5.18,32.25-.31,42.58-.27,49.03,3.48,1.98,1.15,3.56,2.73,3.56,2.73,4.6,4.37,6.22,9.85,7.29,14.67,2.94,13.27,4.85,21.9,3,34Z"/>
    <path class="cls-1" d="M593.68,999.21s-16.72,11.06-43.82,8.82c-1.69-.14-4.43-.47-5.51-2.34-3.08-5.31,10.15-17.93,14.51-22.71,35.79-39.21,35.23-82.45,47.81-81.46,9.97.79,14.54,28.27,14.84,30.11,3.88,24.38-5.69,52.93-27.82,67.57Z"/>
    <ellipse class="cls-4" cx="513.36" cy="898.53" rx="4" ry="7"/>
    <ellipse class="cls-4" cx="520.36" cy="899.53" rx="4" ry="7" transform="translate(-141.1 98.03) rotate(-9.48)"/>
    <ellipse class="cls-4" cx="527.36" cy="899.53" rx="4" ry="7"/>
    <ellipse class="cls-4" cx="533.36" cy="899.53" rx="7" ry="4" transform="translate(-408.47 1354.05) rotate(-85.1)"/>
    <ellipse class="cls-4" cx="541.36" cy="899.53" rx="4" ry="7"/>
    <ellipse class="cls-4" cx="545.36" cy="908.53" rx="4" ry="7"/>
    <ellipse class="cls-4" cx="549.36" cy="898.53" rx="7" ry="4" transform="translate(-392.84 1369.08) rotate(-85.1)"/>
    <ellipse class="cls-4" cx="556.36" cy="901.53" rx="4" ry="7" transform="translate(-119.27 85.56) rotate(-7.95)"/>
    <ellipse class="cls-4" cx="556.77" cy="893.57" rx="4" ry="7" transform="translate(-321.92 313.6) rotate(-24.65)"/>
    <ellipse class="cls-4" cx="564.36" cy="899.53" rx="7" ry="4" transform="translate(-437.55 1251.45) rotate(-77.25)"/>
    <ellipse class="cls-4" cx="571.36" cy="901.53" rx="4" ry="7"/>
    <ellipse class="cls-4" cx="573.36" cy="893.53" rx="4" ry="7"/>
    <ellipse class="cls-4" cx="579.36" cy="903.53" rx="4" ry="7"/>
    <ellipse class="cls-4" cx="577.36" cy="898.53" rx="4" ry="7"/>
    <ellipse class="cls-4" cx="583.36" cy="896.53" rx="4" ry="7"/>
    <ellipse class="cls-4" cx="589.36" cy="896.53" rx="7" ry="4" transform="translate(-354.27 1407.1) rotate(-85.1)"/>
    <ellipse class="cls-4" cx="588.22" cy="905.45" rx="7" ry="4" transform="translate(-364.2 1414.12) rotate(-85.1)"/>
    <ellipse class="cls-4" cx="595.22" cy="899.45" rx="7" ry="4" transform="translate(-351.82 1415.61) rotate(-85.1)"/>
    <ellipse class="cls-4" cx="602.22" cy="895.45" rx="7" ry="4" transform="translate(-341.43 1418.93) rotate(-85.1)"/>
    <ellipse class="cls-4" cx="601.22" cy="903.45" rx="7" ry="4" transform="translate(-350.32 1425.25) rotate(-85.1)"/>
    <ellipse class="cls-4" cx="610.22" cy="900.45" rx="7" ry="4" transform="translate(-339.1 1431.47) rotate(-85.1)"/>
    <ellipse class="cls-4" cx="568.22" cy="915.45" rx="7" ry="4" transform="translate(-392.45 1403.34) rotate(-85.1)"/>
    <ellipse class="cls-4" cx="504.22" cy="901.45" rx="7" ry="4" transform="translate(-505.61 1118.46) rotate(-72.91)"/>
    <ellipse class="cls-4" cx="523.3" cy="915.84" rx="7" ry="4" transform="translate(-433.92 1358.93) rotate(-85.1)"/>
    <ellipse class="cls-4" cx="531.07" cy="924.84" rx="4" ry="7" transform="translate(-145.12 100.14) rotate(-9.48)"/>
    <ellipse class="cls-4" cx="523.07" cy="941.84" rx="7" ry="4" transform="translate(-543.17 1096.1) rotate(-69.19)"/>
    <ellipse class="cls-4" cx="531.07" cy="956.84" rx="4" ry="7" transform="translate(-192.55 135.9) rotate(-12.36)"/>
    <line class="cls-3" x1="529.86" y1="1049.03" x2="527.04" y2="901.93"/>
    <path class="cls-3" d="M544.86,1088.03c-.65-.16,26.03-67.23,14-148-3.68-24.7-9.53-40.99-9.97-40.89-.8.17,17.72,53.86,11.97,119.89-3.69,42.42-15.59,69.1-16,69Z"/>
    <path class="cls-3" d="M530.86,1067.03c-3.95-8.74-8.07-19.82-11-33-3.56-16-4.26-30.1-4-41-.26,10.9.44,25,4,41,2.93,13.18,7.05,24.26,11,33Z"/>
    <path class="cls-3" d="M528.86,1146.03c16.03-11.92,27.16-24.63,35-36,57.41-83.31,8.32-196.6,1.77-211.15,20.38,42.94,24.51,80.29,25.23,102.15.75,22.77,1.36,49.77-12,81-14.39,33.65-37.27,54.16-50,64Z"/>
    <path class="cls-3" d="M628.2,1036.72c-6.52-15.67-13.28-35.58-17.97-59.29-5.69-28.78-6.57-54.22-5.86-73.89-.7,19.67.17,45.11,5.86,73.89,4.69,23.71,11.45,43.62,17.97,59.29Z"/>
    <line class="cls-3" x1="567.86" y1="1116.03" x2="574.16" y2="1005.63"/>
    <path class="cls-3" d="M601.86,1179.03c-9.7-30.19-10.81-54.39-10-71,.77-15.74,3.07-20.96,7-54,2.13-17.93,4.66-39.19,5-56,.43-20.79-2.13-52.42-18.08-92.17,16.73,42.76,19.11,77.27,18.08,101.17-1.99,46.27-17.85,78.08-10,135,2.19,15.89,5.54,28.71,8,37Z"/>
    <ellipse class="cls-4" cx="526.36" cy="975.53" rx="7" ry="4" transform="translate(-560.79 1191.93) rotate(-72.91)"/>
    <ellipse class="cls-4" cx="525.36" cy="994.53" rx="7" ry="4" transform="translate(-530.07 1383.33) rotate(-82.38)"/>
    <ellipse class="cls-4" cx="533.06" cy="1016.39" rx="4" ry="7" transform="translate(-436.78 402.7) rotate(-30)"/>
    <ellipse class="cls-4" cx="528.06" cy="1031.39" rx="7" ry="4" transform="translate(-564.25 1417.97) rotate(-82.38)"/>
    <ellipse class="cls-4" cx="531.06" cy="1049.39" rx="7" ry="4" transform="translate(-579.49 1436.56) rotate(-82.38)"/>
    <ellipse class="cls-4" cx="513.73" cy="997.69" rx="3.94" ry="1.91" transform="translate(-543.29 1374.54) rotate(-82.38)"/>
    <ellipse class="cls-4" cx="518.06" cy="1003.39" rx="1.91" ry="3.94" transform="translate(-377.66 315.74) rotate(-25.18)"/>
    <ellipse class="cls-4" cx="514.47" cy="1013.81" rx="3.94" ry="1.91" transform="translate(-558.63 1389.26) rotate(-82.38)"/>
    <ellipse class="cls-4" cx="515.47" cy="1024.81" rx="3.94" ry="1.91" transform="translate(-568.66 1399.79) rotate(-82.38)"/>
    <ellipse class="cls-4" cx="519.91" cy="1019.46" rx="1.91" ry="3.94" transform="translate(-470.15 445.53) rotate(-32.88)"/>
    <ellipse class="cls-4" cx="517.67" cy="1034.46" rx="3.94" ry="1.91" transform="translate(-576.32 1410.34) rotate(-82.38)"/>
    <ellipse class="cls-4" cx="520.67" cy="1045.46" rx="3.94" ry="1.91" transform="translate(-584.62 1422.85) rotate(-82.38)"/>
    <ellipse class="cls-4" cx="523.67" cy="1038.46" rx="1.91" ry="3.94" transform="translate(-521.62 528.56) rotate(-37.24)"/>
    <ellipse class="cls-4" cx="526.67" cy="1063.46" rx="3.94" ry="1.91" transform="translate(-597.26 1444.41) rotate(-82.38)"/>
    <ellipse class="cls-4" cx="528.67" cy="1054.46" rx="1.91" ry="3.94" transform="translate(-590.77 682.67) rotate(-45)"/>
    <ellipse class="cls-4" cx="523.33" cy="1054.66" rx="3.94" ry="1.91" transform="translate(-591.43 1433.46) rotate(-82.38)"/>
    <ellipse class="cls-4" cx="551.36" cy="926.53" rx="7" ry="4" transform="translate(-474.01 1259.81) rotate(-77.25)"/>
    <ellipse class="cls-4" cx="555.36" cy="947.53" rx="7" ry="4" transform="translate(-534.41 1084.06) rotate(-66.77)"/>
    <ellipse class="cls-4" cx="561.86" cy="934.05" rx="4" ry="7" transform="translate(-391.75 406.07) rotate(-30)"/>
    <ellipse class="cls-4" cx="556.52" cy="964.1" rx="7" ry="4" transform="translate(-472.88 1387.82) rotate(-82.38)"/>
    <ellipse class="cls-4" cx="558.52" cy="982.1" rx="7" ry="4" transform="translate(-564.26 1107.9) rotate(-66.77)"/>
    <ellipse class="cls-4" cx="564.52" cy="966.1" rx="4" ry="7" transform="translate(-298.03 253.34) rotate(-20.13)"/>
    <ellipse class="cls-4" cx="557.01" cy="1006.79" rx="7" ry="4" transform="translate(-587.86 1121.45) rotate(-66.77)"/>
    <ellipse class="cls-4" cx="563.01" cy="1024.79" rx="4" ry="7" transform="translate(-70.16 41.8) rotate(-4)"/>
    <ellipse class="cls-4" cx="551.18" cy="1048.57" rx="4" ry="7" transform="translate(-71.85 41.03) rotate(-4)"/>
    <ellipse class="cls-4" cx="558.18" cy="1059.57" rx="4" ry="7" transform="translate(-72.6 41.55) rotate(-4)"/>
    <ellipse class="cls-4" cx="545.67" cy="1070.81" rx="7" ry="4" transform="translate(-654.52 1007.97) rotate(-60)"/>
    <ellipse class="cls-4" cx="548.67" cy="1085.81" rx="4" ry="7" transform="translate(-74.46 40.95) rotate(-4)"/>
    <ellipse class="cls-4" cx="556.36" cy="912.53" rx="4" ry="7" transform="translate(-381.73 400.44) rotate(-30)"/>
    <ellipse class="cls-4" cx="552.9" cy="903.07" rx="4" ry="7" transform="translate(-377.46 397.44) rotate(-30)"/>
    <ellipse class="cls-4" cx="548.58" cy="909.58" rx="4" ry="7" transform="translate(-381.29 396.15) rotate(-30)"/>
    <ellipse class="cls-4" cx="535.29" cy="905.62" rx="4" ry="7" transform="translate(-381.09 388.98) rotate(-30)"/>
    <ellipse class="cls-4" cx="513.29" cy="902.62" rx="7" ry="4" transform="translate(-335.24 304.14) rotate(-25.18)"/>
    <ellipse class="cls-4" cx="565.38" cy="900.17" rx="4" ry="7" transform="translate(-476.95 1108.79) rotate(-69.19)"/>
    <ellipse class="cls-4" cx="574.38" cy="932.17" rx="7" ry="4" transform="translate(-403.48 1424.76) rotate(-85.1)"/>
    <ellipse class="cls-4" cx="579.38" cy="920.17" rx="4" ry="7" transform="translate(-438.69 538.15) rotate(-37.24)"/>
    <ellipse class="cls-4" cx="564.38" cy="904.17" rx="7" ry="4" transform="translate(-442.06 1255.08) rotate(-77.25)"/>
    <ellipse class="cls-4" cx="578.38" cy="942.17" rx="7" ry="4" transform="translate(-409.79 1437.89) rotate(-85.1)"/>
    <ellipse class="cls-4" cx="581.38" cy="935.17" rx="4" ry="7" transform="translate(-389.7 415.98) rotate(-30)"/>
    <ellipse class="cls-4" cx="581.06" cy="958.92" rx="7" ry="4" transform="translate(-424.02 1455.88) rotate(-85.1)"/>
    <ellipse class="cls-4" cx="591.06" cy="969.92" rx="4" ry="7" transform="translate(-297.73 262.7) rotate(-20.13)"/>
    <ellipse class="cls-4" cx="586.06" cy="992.92" rx="7" ry="4" transform="translate(-453.33 1491.95) rotate(-85.1)"/>
    <ellipse class="cls-4" cx="595.12" cy="1003.58" rx="4" ry="7" transform="translate(-240.35 189.13) rotate(-15.06)"/>
    <ellipse class="cls-4" cx="587.28" cy="1021.17" rx="7" ry="4" transform="translate(-480.36 1519) rotate(-85.1)"/>
    <ellipse class="cls-4" cx="594.28" cy="1037.17" rx="4" ry="7" transform="translate(-249.11 190.06) rotate(-15.06)"/>
    <ellipse class="cls-4" cx="583.28" cy="1049.17" rx="7" ry="4" transform="translate(-616.97 1029.72) rotate(-60)"/>
    <ellipse class="cls-4" cx="587.58" cy="1067.22" rx="7" ry="4" transform="translate(-511.35 1593.1) rotate(-86.74)"/>
    <ellipse class="cls-4" cx="573.58" cy="1083.22" rx="7" ry="4" transform="translate(-496.16 484.88) rotate(-32.88)"/>
    <ellipse class="cls-4" cx="573.17" cy="1102" rx="7" ry="4" transform="translate(-573.79 1578.88) rotate(-85.1)"/>
    <ellipse class="cls-4" cx="558.17" cy="1125" rx="7" ry="4" transform="translate(-610.43 1584.96) rotate(-85.1)"/>
    <ellipse class="cls-4" cx="541.17" cy="1141" rx="7" ry="4" transform="translate(-641.92 1582.66) rotate(-85.1)"/>
    <ellipse class="cls-4" cx="531.17" cy="1141" rx="7" ry="4" transform="translate(-582.14 554) rotate(-37.24)"/>
    <ellipse class="cls-4" cx="543.17" cy="1129" rx="7" ry="4" transform="translate(-274.73 179.94) rotate(-15.06)"/>
    <ellipse class="cls-4" cx="557.17" cy="1111" rx="7" ry="4" transform="translate(-202.28 127.13) rotate(-11.03)"/>
    <ellipse class="cls-4" cx="576.48" cy="1009.01" rx="1.91" ry="3.94" transform="translate(-455.42 474.57) rotate(-32.88)"/>
    <ellipse class="cls-4" cx="575.48" cy="1019.01" rx="1.91" ry="3.94" transform="translate(-461.01 475.63) rotate(-32.88)"/>
    <ellipse class="cls-4" cx="570.48" cy="1031.01" rx="3.94" ry="1.91" transform="translate(-601.97 1148.5) rotate(-66.77)"/>
    <ellipse class="cls-4" cx="570.11" cy="1046.83" rx="3.94" ry="1.91" transform="translate(-588.74 1326.03) rotate(-74.97)"/>
    <ellipse class="cls-4" cx="574.11" cy="1038.83" rx="1.91" ry="3.94" transform="translate(-250.23 184.88) rotate(-15.06)"/>
    <ellipse class="cls-4" cx="573.31" cy="1058.46" rx="1.91" ry="3.94" transform="translate(-255.36 185.35) rotate(-15.06)"/>
    <ellipse class="cls-4" cx="572.31" cy="1070.46" rx="1.91" ry="3.94" transform="translate(-258.51 185.5) rotate(-15.06)"/>
    <ellipse class="cls-4" cx="567.92" cy="1078.89" rx="3.94" ry="1.91" transform="translate(-641.94 1229.84) rotate(-69.35)"/>
    <ellipse class="cls-4" cx="567.12" cy="1095.01" rx="3.94" ry="1.91" transform="translate(-657.54 1239.53) rotate(-69.35)"/>
    <ellipse class="cls-4" cx="569.32" cy="1111.34" rx="1.91" ry="3.94" transform="translate(-269.24 186.13) rotate(-15.06)"/>
    <ellipse class="cls-4" cx="566.32" cy="1116.34" rx="3.94" ry="1.91" transform="translate(-666.35 1334.17) rotate(-73.12)"/>
    <ellipse class="cls-4" cx="594.61" cy="918.75" rx="4" ry="7" transform="translate(-328.97 331.67) rotate(-24.65)"/>
    <ellipse class="cls-4" cx="594.61" cy="939.75" rx="4" ry="7"/>
    <ellipse class="cls-4" cx="602.61" cy="951.75" rx="4" ry="7" transform="translate(-453.06 558.65) rotate(-37.24)"/>
    <ellipse class="cls-4" cx="600.36" cy="982.53" rx="7" ry="4" transform="translate(-504.23 1307.62) rotate(-74.97)"/>
    <ellipse class="cls-4" cx="608.71" cy="1000.32" rx="4" ry="7" transform="translate(-239.04 192.55) rotate(-15.06)"/>
    <ellipse class="cls-4" cx="598.71" cy="1019.32" rx="7" ry="4" transform="translate(-566.27 1220.09) rotate(-69.35)"/>
    <ellipse class="cls-4" cx="605.87" cy="1034.48" rx="4" ry="7" transform="translate(-248.01 192.98) rotate(-15.06)"/>
    <ellipse class="cls-4" cx="603.24" cy="1054.37" rx="4" ry="7" transform="translate(-190.59 134.9) rotate(-11.03)"/>
    <ellipse class="cls-4" cx="599.36" cy="1074.53" rx="4" ry="7"/>
    <ellipse class="cls-4" cx="593.61" cy="1054.94" rx="7" ry="4" transform="translate(-602.89 1238.38) rotate(-69.35)"/>
    <ellipse class="cls-4" cx="595.15" cy="1099.5" rx="4" ry="7" transform="translate(-199.38 134.19) rotate(-11.03)"/>
    <ellipse class="cls-4" cx="587.15" cy="1118.5" rx="7" ry="4" transform="translate(-627.95 1463.96) rotate(-78.17)"/>
    <ellipse class="cls-4" cx="595.07" cy="1131.7" rx="4" ry="7" transform="translate(-273.65 193.52) rotate(-15.06)"/>
    <ellipse class="cls-4" cx="591.07" cy="1150.7" rx="7" ry="4" transform="translate(-656.35 1493.39) rotate(-78.17)"/>
    <ellipse class="cls-4" cx="595.07" cy="1167.7" rx="7" ry="4" transform="translate(-669.8 1510.82) rotate(-78.17)"/>
    <ellipse class="cls-4" cx="605.07" cy="1176.7" rx="4" ry="7" transform="translate(-611.04 655.35) rotate(-39.58)"/>
    <ellipse class="cls-4" cx="607.83" cy="927.28" rx="4" ry="7" transform="translate(-331.32 337.96) rotate(-24.65)"/>
    <ellipse class="cls-4" cx="603.83" cy="939.28" rx="7" ry="4" transform="translate(-383.63 1460.61) rotate(-85.1)"/>
    <ellipse class="cls-4" cx="612.04" cy="969.83" rx="4" ry="7" transform="translate(-348.69 343.59) rotate(-24.65)"/>
    <ellipse class="cls-4" cx="616.84" cy="990.58" rx="4" ry="7" transform="translate(-473.66 575.18) rotate(-37.24)"/>
    <ellipse class="cls-4" cx="616.26" cy="1011.74" rx="4" ry="7" transform="translate(-69.12 45.49) rotate(-4)"/>
    <ellipse class="cls-4" cx="626.26" cy="1023.74" rx="4" ry="7" transform="translate(-491.8 587.63) rotate(-37.24)"/>
    <ellipse class="cls-4" cx="625.86" cy="1039.33" rx="4" ry="7" transform="translate(-71.02 46.22) rotate(-4)"/>
    <path class="cls-3" d="M505.86,992.03c-4.81-15.91-6.45-29.38-7-39-.49-8.56-.2-15.49,0-20,.58-13.2,2.2-24.25,3.72-32.37-2.82,13.15-5.22,31.15-3.72,52.37,1.09,15.34,3.94,28.52,7,39Z"/>
    <ellipse class="cls-4" cx="497.15" cy="925.13" rx="7" ry="4" transform="translate(-544.26 1061.1) rotate(-69.19)"/>
    <ellipse class="cls-4" cx="502.15" cy="946.13" rx="4" ry="7" transform="translate(-294.97 230.65) rotate(-20.13)"/>
    <ellipse class="cls-4" cx="500.15" cy="911.13" rx="7" ry="4" transform="translate(-497.78 620.52) rotate(-45)"/>
    <ellipse class="cls-4" cx="537.15" cy="895.13" rx="7" ry="4" transform="translate(-490.43 1079.15) rotate(-69.19)"/>
    <ellipse class="cls-4" cx="565.15" cy="894.13" rx="7" ry="4" transform="translate(-471.45 1104.68) rotate(-69.19)"/>
    <ellipse class="cls-4" cx="504.15" cy="966.13" rx="4" ry="7" transform="translate(-195.17 130.35) rotate(-12.36)"/>
    <ellipse class="cls-4" cx="498.15" cy="982.13" rx="7" ry="4" transform="translate(-596.9 1098.78) rotate(-69.19)"/>
    <ellipse class="cls-4" cx="507.15" cy="992.13" rx="4" ry="7" transform="translate(-200.67 131.59) rotate(-12.36)"/>
  </g>
  <g id="Krukke">
    <path class="cls-5" d="M1777,325.14c-1.05,6.87-4.02,24.56-19,38.87-22.89,21.87-53.69,16.59-56,16.15-17.08-3.26-28.47-12.83-33.46-17.69-25.21-24.57-31.55-69.69-14.02-87.03,4.33-4.29,8.04-4.69,59.6-5.18,32.25-.31,42.58-.27,49.03,3.48,1.98,1.15,3.56,2.73,3.56,2.73,4.6,4.37,6.22,9.85,7.29,14.67,2.94,13.27,4.85,21.9,3,34Z"/>
  </g>
  <g id="Layer_3" data-name="Layer 3">
    <path class="cls-1" d="M1748.32,370.81s-16.72,11.06-43.82,8.82c-1.69-.14-4.43-.47-5.51-2.34-3.08-5.31,10.15-17.93,14.51-22.71,35.79-39.21,35.23-82.45,47.81-81.46,9.97.79,14.54,28.27,14.84,30.11,3.88,24.38-5.69,52.93-27.82,67.57Z"/>
  </g>
  <g id="snore">
    <line class="cls-2" x1="1661" y1="285.14" x2="1697" y2="16.14"/>
    <line class="cls-2" x1="1682.14" y1="271.17" x2="1704.09" y2="15.36"/>
    <line class="cls-2" x1="1763.23" y1="286.92" x2="1718" y2="16.14"/>
    <line class="cls-2" x1="1751.23" y1="266.92" x2="1714" y2=".14"/>
  </g>
  <g id="blade">
    <ellipse class="cls-4" cx="1668" cy="270.14" rx="4" ry="7"/>
    <ellipse class="cls-4" cx="1675" cy="271.14" rx="4" ry="7" transform="translate(-21.78 279.69) rotate(-9.48)"/>
    <ellipse class="cls-4" cx="1682" cy="271.14" rx="4" ry="7"/>
    <ellipse class="cls-4" cx="1688" cy="271.14" rx="7" ry="4" transform="translate(1273.56 1929.78) rotate(-85.1)"/>
    <ellipse class="cls-4" cx="1696" cy="271.14" rx="4" ry="7"/>
    <ellipse class="cls-4" cx="1700" cy="280.14" rx="4" ry="7"/>
    <ellipse class="cls-4" cx="1704" cy="270.14" rx="7" ry="4" transform="translate(1289.19 1944.81) rotate(-85.1)"/>
    <ellipse class="cls-4" cx="1711" cy="273.14" rx="4" ry="7" transform="translate(-21.33 239.13) rotate(-7.95)"/>
    <ellipse class="cls-4" cx="1711.4" cy="265.17" rx="4" ry="7" transform="translate(45.34 737.86) rotate(-24.65)"/>
    <ellipse class="cls-4" cx="1719" cy="271.14" rx="7" ry="4" transform="translate(1075.16 1887.91) rotate(-77.25)"/>
    <ellipse class="cls-4" cx="1726" cy="273.14" rx="4" ry="7"/>
    <ellipse class="cls-4" cx="1728" cy="265.14" rx="4" ry="7"/>
    <ellipse class="cls-4" cx="1734" cy="275.14" rx="4" ry="7"/>
    <ellipse class="cls-4" cx="1732" cy="270.14" rx="4" ry="7"/>
    <ellipse class="cls-4" cx="1738" cy="268.14" rx="4" ry="7"/>
    <ellipse class="cls-4" cx="1744" cy="268.14" rx="7" ry="4" transform="translate(1327.76 1982.83) rotate(-85.1)"/>
    <ellipse class="cls-4" cx="1742.86" cy="277.06" rx="7" ry="4" transform="translate(1317.83 1989.86) rotate(-85.1)"/>
    <ellipse class="cls-4" cx="1749.86" cy="271.06" rx="7" ry="4" transform="translate(1330.21 1991.34) rotate(-85.1)"/>
    <ellipse class="cls-4" cx="1756.86" cy="267.06" rx="7" ry="4" transform="translate(1340.6 1994.66) rotate(-85.1)"/>
    <ellipse class="cls-4" cx="1755.86" cy="275.06" rx="7" ry="4" transform="translate(1331.71 2000.98) rotate(-85.1)"/>
    <ellipse class="cls-4" cx="1764.86" cy="272.06" rx="7" ry="4" transform="translate(1342.93 2007.2) rotate(-85.1)"/>
    <ellipse class="cls-4" cx="1722.86" cy="287.06" rx="7" ry="4" transform="translate(1289.58 1979.08) rotate(-85.1)"/>
    <ellipse class="cls-4" cx="1658.86" cy="273.06" rx="7" ry="4" transform="translate(910.31 1778.4) rotate(-72.91)"/>
    <ellipse class="cls-4" cx="1677.94" cy="287.44" rx="7" ry="4" transform="translate(1248.11 1934.67) rotate(-85.1)"/>
    <ellipse class="cls-4" cx="1685.71" cy="296.44" rx="4" ry="7" transform="translate(-25.8 281.8) rotate(-9.48)"/>
    <ellipse class="cls-4" cx="1677.71" cy="313.44" rx="7" ry="4" transform="translate(788.57 1770.28) rotate(-69.19)"/>
    <ellipse class="cls-4" cx="1685.71" cy="328.44" rx="4" ry="7" transform="translate(-31.23 368.55) rotate(-12.36)"/>
    <line class="cls-3" x1="1684.5" y1="420.64" x2="1681.68" y2="273.54"/>
    <path class="cls-3" d="M1699.5,459.64c-.65-.16,26.03-67.23,14-148-3.68-24.7-9.53-40.99-9.97-40.89-.8.17,17.72,53.86,11.97,119.89-3.69,42.42-15.59,69.1-16,69Z"/>
    <path class="cls-3" d="M1685.5,438.64c-3.95-8.74-8.07-19.82-11-33-3.56-16-4.26-30.1-4-41-.26,10.9.44,25,4,41,2.93,13.18,7.05,24.26,11,33Z"/>
    <path class="cls-3" d="M1683.5,517.64c16.03-11.92,27.16-24.63,35-36,57.41-83.31,8.32-196.6,1.77-211.15,20.38,42.94,24.51,80.29,25.23,102.15.75,22.77,1.36,49.77-12,81-14.39,33.65-37.27,54.16-50,64Z"/>
    <path class="cls-3" d="M1782.84,408.32c-6.52-15.67-13.28-35.58-17.97-59.29-5.69-28.78-6.57-54.22-5.86-73.89-.7,19.67.17,45.11,5.86,73.89,4.69,23.71,11.45,43.62,17.97,59.29Z"/>
    <line class="cls-3" x1="1722.5" y1="487.64" x2="1728.79" y2="377.24"/>
    <path class="cls-3" d="M1756.5,550.64c-9.7-30.19-10.81-54.39-10-71,.77-15.74,3.07-20.96,7-54,2.13-17.93,4.66-39.19,5-56,.43-20.79-2.13-52.42-18.08-92.17,16.73,42.76,19.11,77.27,18.08,101.17-1.99,46.27-17.85,78.08-10,135,2.19,15.89,5.54,28.71,8,37Z"/>
    <ellipse class="cls-4" cx="1681" cy="347.14" rx="7" ry="4" transform="translate(855.14 1851.87) rotate(-72.91)"/>
    <ellipse class="cls-4" cx="1680" cy="366.14" rx="7" ry="4" transform="translate(1094.25 1982.73) rotate(-82.38)"/>
    <ellipse class="cls-4" cx="1687.7" cy="387.99" rx="4" ry="7" transform="translate(32.11 895.83) rotate(-30)"/>
    <ellipse class="cls-4" cx="1682.7" cy="402.99" rx="7" ry="4" transform="translate(1060.07 2017.37) rotate(-82.38)"/>
    <ellipse class="cls-4" cx="1685.7" cy="420.99" rx="7" ry="4" transform="translate(1044.83 2035.95) rotate(-82.38)"/>
    <ellipse class="cls-4" cx="1668.37" cy="369.3" rx="3.94" ry="1.91" transform="translate(1081.03 1973.94) rotate(-82.38)"/>
    <ellipse class="cls-4" cx="1672.7" cy="374.99" rx="1.91" ry="3.94" transform="translate(-.61 747.27) rotate(-25.18)"/>
    <ellipse class="cls-4" cx="1669.11" cy="385.42" rx="3.94" ry="1.91" transform="translate(1065.69 1988.65) rotate(-82.38)"/>
    <ellipse class="cls-4" cx="1670.11" cy="396.42" rx="3.94" ry="1.91" transform="translate(1055.66 1999.18) rotate(-82.38)"/>
    <ellipse class="cls-4" cx="1674.54" cy="391.06" rx="1.91" ry="3.94" transform="translate(55.93 971.69) rotate(-32.88)"/>
    <ellipse class="cls-4" cx="1672.31" cy="406.07" rx="3.94" ry="1.91" transform="translate(1048 2009.73) rotate(-82.38)"/>
    <ellipse class="cls-4" cx="1675.31" cy="417.07" rx="3.94" ry="1.91" transform="translate(1039.7 2022.25) rotate(-82.38)"/>
    <ellipse class="cls-4" cx="1678.31" cy="410.07" rx="1.91" ry="3.94" transform="translate(93.99 1099.13) rotate(-37.24)"/>
    <ellipse class="cls-4" cx="1681.31" cy="435.07" rx="3.94" ry="1.91" transform="translate(1027.07 2043.81) rotate(-82.38)"/>
    <ellipse class="cls-4" cx="1683.31" cy="426.07" rx="1.91" ry="3.94" transform="translate(191.75 1315.07) rotate(-45)"/>
    <ellipse class="cls-4" cx="1677.97" cy="426.26" rx="3.94" ry="1.91" transform="translate(1032.89 2032.86) rotate(-82.38)"/>
    <ellipse class="cls-4" cx="1706" cy="298.14" rx="7" ry="4" transform="translate(1038.69 1896.27) rotate(-77.25)"/>
    <ellipse class="cls-4" cx="1710" cy="319.14" rx="7" ry="4" transform="translate(742.16 1764.56) rotate(-66.77)"/>
    <ellipse class="cls-4" cx="1716.5" cy="305.66" rx="4" ry="7" transform="translate(77.14 899.2) rotate(-30)"/>
    <ellipse class="cls-4" cx="1711.16" cy="335.71" rx="7" ry="4" transform="translate(1151.44 1987.22) rotate(-82.38)"/>
    <ellipse class="cls-4" cx="1713.16" cy="353.71" rx="7" ry="4" transform="translate(712.31 1788.39) rotate(-66.77)"/>
    <ellipse class="cls-4" cx="1719.16" cy="337.71" rx="4" ry="7" transform="translate(-11.19 612.36) rotate(-20.13)"/>
    <ellipse class="cls-4" cx="1711.65" cy="378.39" rx="7" ry="4" transform="translate(688.71 1801.95) rotate(-66.77)"/>
    <ellipse class="cls-4" cx="1717.65" cy="396.39" rx="4" ry="7" transform="translate(-23.48 120.87) rotate(-4)"/>
    <ellipse class="cls-4" cx="1705.82" cy="420.17" rx="4" ry="7" transform="translate(-25.17 120.1) rotate(-4)"/>
    <ellipse class="cls-4" cx="1712.82" cy="431.17" rx="4" ry="7" transform="translate(-25.92 120.61) rotate(-4)"/>
    <ellipse class="cls-4" cx="1700.3" cy="442.42" rx="7" ry="4" transform="translate(467.01 1693.71) rotate(-60)"/>
    <ellipse class="cls-4" cx="1703.3" cy="457.42" rx="4" ry="7" transform="translate(-27.77 120.01) rotate(-4)"/>
    <ellipse class="cls-4" cx="1711" cy="284.14" rx="4" ry="7" transform="translate(87.16 893.57) rotate(-30)"/>
    <ellipse class="cls-4" cx="1707.54" cy="274.67" rx="4" ry="7" transform="translate(91.43 890.57) rotate(-30)"/>
    <ellipse class="cls-4" cx="1703.21" cy="281.19" rx="4" ry="7" transform="translate(87.59 889.28) rotate(-30)"/>
    <ellipse class="cls-4" cx="1689.93" cy="277.23" rx="4" ry="7" transform="translate(87.79 882.11) rotate(-30)"/>
    <ellipse class="cls-4" cx="1667.93" cy="274.23" rx="7" ry="4" transform="translate(41.81 735.67) rotate(-25.18)"/>
    <ellipse class="cls-4" cx="1720.01" cy="271.78" rx="4" ry="7" transform="translate(854.8 1782.97) rotate(-69.19)"/>
    <ellipse class="cls-4" cx="1729.01" cy="303.78" rx="7" ry="4" transform="translate(1278.55 2000.49) rotate(-85.1)"/>
    <ellipse class="cls-4" cx="1734.01" cy="291.78" rx="4" ry="7" transform="translate(176.92 1108.72) rotate(-37.24)"/>
    <ellipse class="cls-4" cx="1719.01" cy="275.78" rx="7" ry="4" transform="translate(1070.65 1891.54) rotate(-77.25)"/>
    <ellipse class="cls-4" cx="1733.01" cy="313.78" rx="7" ry="4" transform="translate(1272.25 2013.63) rotate(-85.1)"/>
    <ellipse class="cls-4" cx="1736.01" cy="306.78" rx="4" ry="7" transform="translate(79.19 909.11) rotate(-30)"/>
    <ellipse class="cls-4" cx="1735.69" cy="330.53" rx="7" ry="4" transform="translate(1258.01 2031.61) rotate(-85.1)"/>
    <ellipse class="cls-4" cx="1745.69" cy="341.53" rx="4" ry="7" transform="translate(-10.89 621.73) rotate(-20.13)"/>
    <ellipse class="cls-4" cx="1740.69" cy="364.53" rx="7" ry="4" transform="translate(1228.7 2067.69) rotate(-85.1)"/>
    <ellipse class="cls-4" cx="1749.75" cy="375.19" rx="4" ry="7" transform="translate(-37.39 467.59) rotate(-15.06)"/>
    <ellipse class="cls-4" cx="1741.91" cy="392.77" rx="7" ry="4" transform="translate(1201.67 2094.74) rotate(-85.1)"/>
    <ellipse class="cls-4" cx="1748.91" cy="408.77" rx="4" ry="7" transform="translate(-46.14 468.52) rotate(-15.06)"/>
    <ellipse class="cls-4" cx="1737.91" cy="420.77" rx="7" ry="4" transform="translate(504.56 1715.47) rotate(-60)"/>
    <ellipse class="cls-4" cx="1742.22" cy="438.82" rx="7" ry="4" transform="translate(1204.93 2153.24) rotate(-86.74)"/>
    <ellipse class="cls-4" cx="1728.22" cy="454.82" rx="7" ry="4" transform="translate(29.92 1011.04) rotate(-32.88)"/>
    <ellipse class="cls-4" cx="1727.81" cy="473.61" rx="7" ry="4" transform="translate(1108.24 2154.61) rotate(-85.1)"/>
    <ellipse class="cls-4" cx="1712.81" cy="496.61" rx="7" ry="4" transform="translate(1071.6 2160.7) rotate(-85.1)"/>
    <ellipse class="cls-4" cx="1695.81" cy="512.61" rx="7" ry="4" transform="translate(1040.12 2158.39) rotate(-85.1)"/>
    <ellipse class="cls-4" cx="1685.81" cy="512.61" rx="7" ry="4" transform="translate(33.47 1124.57) rotate(-37.24)"/>
    <ellipse class="cls-4" cx="1697.81" cy="500.61" rx="7" ry="4" transform="translate(-71.76 458.4) rotate(-15.06)"/>
    <ellipse class="cls-4" cx="1711.81" cy="482.61" rx="7" ry="4" transform="translate(-60.71 336.45) rotate(-11.03)"/>
    <ellipse class="cls-4" cx="1731.11" cy="380.62" rx="1.91" ry="3.94" transform="translate(70.66 1000.72) rotate(-32.88)"/>
    <ellipse class="cls-4" cx="1730.11" cy="390.62" rx="1.91" ry="3.94" transform="translate(65.07 1001.78) rotate(-32.88)"/>
    <ellipse class="cls-4" cx="1725.11" cy="402.62" rx="3.94" ry="1.91" transform="translate(674.6 1829) rotate(-66.77)"/>
    <ellipse class="cls-4" cx="1724.75" cy="418.44" rx="3.94" ry="1.91" transform="translate(873.43 1975.72) rotate(-74.97)"/>
    <ellipse class="cls-4" cx="1728.75" cy="410.44" rx="1.91" ry="3.94" transform="translate(-47.27 463.34) rotate(-15.06)"/>
    <ellipse class="cls-4" cx="1727.95" cy="430.06" rx="1.91" ry="3.94" transform="translate(-52.39 463.81) rotate(-15.06)"/>
    <ellipse class="cls-4" cx="1726.95" cy="442.06" rx="1.91" ry="3.94" transform="translate(-55.55 463.96) rotate(-15.06)"/>
    <ellipse class="cls-4" cx="1722.56" cy="450.5" rx="3.94" ry="1.91" transform="translate(693.53 1903.51) rotate(-69.35)"/>
    <ellipse class="cls-4" cx="1721.76" cy="466.62" rx="3.94" ry="1.91" transform="translate(677.93 1913.2) rotate(-69.35)"/>
    <ellipse class="cls-4" cx="1723.96" cy="482.95" rx="1.91" ry="3.94" transform="translate(-66.27 464.59) rotate(-15.06)"/>
    <ellipse class="cls-4" cx="1720.96" cy="487.95" rx="3.94" ry="1.91" transform="translate(754.39 1993.12) rotate(-73.12)"/>
    <ellipse class="cls-4" cx="1749.24" cy="290.36" rx="4" ry="7" transform="translate(38.28 755.94) rotate(-24.65)"/>
    <ellipse class="cls-4" cx="1749.24" cy="311.36" rx="4" ry="7"/>
    <ellipse class="cls-4" cx="1757.24" cy="323.36" rx="4" ry="7" transform="translate(162.55 1129.22) rotate(-37.24)"/>
    <ellipse class="cls-4" cx="1755" cy="354.14" rx="7" ry="4" transform="translate(957.94 1957.3) rotate(-74.97)"/>
    <ellipse class="cls-4" cx="1763.34" cy="371.93" rx="4" ry="7" transform="translate(-36.07 471.01) rotate(-15.06)"/>
    <ellipse class="cls-4" cx="1753.34" cy="390.93" rx="7" ry="4" transform="translate(769.2 1893.76) rotate(-69.35)"/>
    <ellipse class="cls-4" cx="1760.51" cy="406.09" rx="4" ry="7" transform="translate(-45.05 471.45) rotate(-15.06)"/>
    <ellipse class="cls-4" cx="1757.88" cy="425.98" rx="4" ry="7" transform="translate(-49.03 344.22) rotate(-11.03)"/>
    <ellipse class="cls-4" cx="1754" cy="446.14" rx="4" ry="7"/>
    <ellipse class="cls-4" cx="1748.25" cy="426.54" rx="7" ry="4" transform="translate(732.58 1912.05) rotate(-69.35)"/>
    <ellipse class="cls-4" cx="1749.79" cy="471.11" rx="4" ry="7" transform="translate(-57.81 343.5) rotate(-11.03)"/>
    <ellipse class="cls-4" cx="1741.79" cy="490.11" rx="7" ry="4" transform="translate(905.1 2094.48) rotate(-78.17)"/>
    <ellipse class="cls-4" cx="1749.71" cy="503.31" rx="4" ry="7" transform="translate(-70.68 471.98) rotate(-15.06)"/>
    <ellipse class="cls-4" cx="1745.71" cy="522.31" rx="7" ry="4" transform="translate(876.7 2123.91) rotate(-78.17)"/>
    <ellipse class="cls-4" cx="1749.71" cy="539.31" rx="7" ry="4" transform="translate(863.25 2141.34) rotate(-78.17)"/>
    <ellipse class="cls-4" cx="1759.71" cy="548.31" rx="4" ry="7" transform="translate(54.11 1246.99) rotate(-39.58)"/>
    <ellipse class="cls-4" cx="1762.47" cy="298.89" rx="4" ry="7" transform="translate(35.93 762.23) rotate(-24.65)"/>
    <ellipse class="cls-4" cx="1758.47" cy="310.89" rx="7" ry="4" transform="translate(1298.4 2036.35) rotate(-85.1)"/>
    <ellipse class="cls-4" cx="1766.68" cy="341.43" rx="4" ry="7" transform="translate(18.57 767.86) rotate(-24.65)"/>
    <ellipse class="cls-4" cx="1771.48" cy="362.19" rx="4" ry="7" transform="translate(141.95 1145.75) rotate(-37.24)"/>
    <ellipse class="cls-4" cx="1770.9" cy="383.35" rx="4" ry="7" transform="translate(-22.44 124.55) rotate(-4)"/>
    <ellipse class="cls-4" cx="1780.9" cy="395.35" rx="4" ry="7" transform="translate(123.81 1158.2) rotate(-37.24)"/>
    <ellipse class="cls-4" cx="1780.5" cy="410.93" rx="4" ry="7" transform="translate(-24.34 125.29) rotate(-4)"/>
    <path class="cls-3" d="M1660.5,363.64c-4.81-15.91-6.45-29.38-7-39-.49-8.56-.2-15.49,0-20,.58-13.2,2.2-24.25,3.72-32.37-2.82,13.15-5.22,31.15-3.72,52.37,1.09,15.34,3.94,28.52,7,39Z"/>
    <ellipse class="cls-4" cx="1651.79" cy="296.74" rx="7" ry="4" transform="translate(787.48 1735.29) rotate(-69.19)"/>
    <ellipse class="cls-4" cx="1656.79" cy="317.74" rx="4" ry="7" transform="translate(-8.13 589.67) rotate(-20.13)"/>
    <ellipse class="cls-4" cx="1654.79" cy="282.74" rx="7" ry="4" transform="translate(284.75 1252.92) rotate(-45)"/>
    <ellipse class="cls-4" cx="1691.79" cy="266.74" rx="7" ry="4" transform="translate(841.31 1753.33) rotate(-69.19)"/>
    <ellipse class="cls-4" cx="1719.79" cy="265.74" rx="7" ry="4" transform="translate(860.29 1778.86) rotate(-69.19)"/>
    <ellipse class="cls-4" cx="1658.79" cy="337.74" rx="4" ry="7" transform="translate(-33.85 363) rotate(-12.36)"/>
    <ellipse class="cls-4" cx="1652.79" cy="353.74" rx="7" ry="4" transform="translate(734.84 1772.97) rotate(-69.19)"/>
    <ellipse class="cls-4" cx="1661.79" cy="363.74" rx="4" ry="7" transform="translate(-39.34 364.24) rotate(-12.36)"/>
  </g>
</svg>