<?xml version="1.0" encoding="UTF-8"?>
<svg id="Layer_2" data-name="Layer 2" xmlns="http://www.w3.org/2000/svg" viewBox="0 0 1920 1090">
  <defs>
    <style>
      .cls-1 {
        fill: #765c43;
        isolation: isolate;
        opacity: .53;
      }

      .cls-1, .cls-2, .cls-3, .cls-4 {
        stroke-miterlimit: 10;
      }

      .cls-1, .cls-3 {
        stroke: #765c43;
      }

      .cls-2, .cls-4 {
        stroke: #39553f;
      }

      .cls-2, .cls-5 {
        fill: #39553f;
      }

      .cls-3 {
        stroke-width: 2px;
      }

      .cls-3, .cls-4 {
        fill: none;
      }

      .cls-5, .cls-6, .cls-7 {
        stroke-width: 0px;
      }

      .cls-6 {
        fill: #c6a788;
      }

      .cls-7 {
        fill: #fff7f8;
      }
    </style>
  </defs>
  <g id="Layer_2-2" data-name="Layer 2">
    <g id="baggrund">
      <rect class="cls-7" y="10" width="1920" height="1080"/>
    </g>
    <g id="Krukke">
      <path class="cls-6" d="M1722,335.78c-1.05,6.87-4.02,24.56-19,38.87-22.89,21.87-53.69,16.59-56,16.15-17.08-3.26-28.47-12.83-33.46-17.69-25.21-24.57-31.55-69.69-14.02-87.03,4.33-4.29,8.04-4.69,59.6-5.18,32.25-.31,42.58-.27,49.03,3.48,1.98,1.15,3.56,2.73,3.56,2.73,4.6,4.37,6.22,9.85,7.29,14.67,2.94,13.27,4.85,21.9,3,34h0Z"/>
    </g>
    <g id="Layer_3" data-name="Layer 3">
      <path class="cls-1" d="M1693.32,381.45s-16.72,11.06-43.82,8.82c-1.69-.14-4.43-.47-5.51-2.34-3.08-5.31,10.15-17.93,14.51-22.71,35.79-39.21,35.23-82.45,47.81-81.46,9.97.79,14.54,28.27,14.84,30.11,3.88,24.38-5.69,52.93-27.82,67.57h-.01Z"/>
    </g>
    <g id="snore">
      <line class="cls-3" x1="1606" y1="295.61" x2="1642" y2=".99"/>
      <line class="cls-3" x1="1627.14" y1="280.31" x2="1649.09" y2=".13"/>
      <line class="cls-3" x1="1708.23" y1="297.56" x2="1663" y2=".99"/>
      <line class="cls-3" x1="1696.23" y1="275.66" x2="1659" y2=".13"/>
    </g>
    <g id="blade">
      <ellipse class="cls-5" cx="1613" cy="280.78" rx="4" ry="7"/>
      <ellipse class="cls-5" cx="1620" cy="281.89" rx="4" ry="7" transform="translate(-24.3 270.67) rotate(-9.48)"/>
      <ellipse class="cls-5" cx="1627" cy="281.78" rx="4" ry="7"/>
      <ellipse class="cls-5" cx="1632.89" cy="281.75" rx="7" ry="4" transform="translate(1212.69 1884.61) rotate(-85.1)"/>
      <ellipse class="cls-5" cx="1641" cy="281.78" rx="4" ry="7"/>
      <ellipse class="cls-5" cx="1645" cy="290.78" rx="4" ry="7"/>
      <ellipse class="cls-5" cx="1648.89" cy="280.75" rx="7" ry="4" transform="translate(1228.32 1899.64) rotate(-85.1)"/>
      <ellipse class="cls-5" cx="1656" cy="283.64" rx="4" ry="7" transform="translate(-23.31 231.77) rotate(-7.95)"/>
      <ellipse class="cls-5" cx="1656.38" cy="275.73" rx="4" ry="7" transform="translate(35.94 715.96) rotate(-24.65)"/>
      <ellipse class="cls-5" cx="1663.99" cy="281.78" rx="7" ry="4" transform="translate(1021.92 1842.55) rotate(-77.25)"/>
      <ellipse class="cls-5" cx="1671" cy="283.78" rx="4" ry="7"/>
      <ellipse class="cls-5" cx="1673" cy="275.78" rx="4" ry="7"/>
      <ellipse class="cls-5" cx="1679" cy="285.78" rx="4" ry="7"/>
      <ellipse class="cls-5" cx="1677" cy="280.78" rx="4" ry="7"/>
      <ellipse class="cls-5" cx="1683" cy="278.78" rx="4" ry="7"/>
      <ellipse class="cls-5" cx="1688.89" cy="278.75" rx="7" ry="4" transform="translate(1266.9 1937.65) rotate(-85.1)"/>
      <ellipse class="cls-5" cx="1687.75" cy="287.68" rx="7" ry="4" transform="translate(1256.96 1944.68) rotate(-85.1)"/>
      <ellipse class="cls-5" cx="1694.75" cy="281.67" rx="7" ry="4" transform="translate(1269.35 1946.16) rotate(-85.1)"/>
      <ellipse class="cls-5" cx="1701.75" cy="277.67" rx="7" ry="4" transform="translate(1279.73 1949.49) rotate(-85.1)"/>
      <ellipse class="cls-5" cx="1700.74" cy="285.67" rx="7" ry="4" transform="translate(1270.84 1955.8) rotate(-85.1)"/>
      <ellipse class="cls-5" cx="1709.74" cy="282.67" rx="7" ry="4" transform="translate(1282.07 1962.02) rotate(-85.1)"/>
      <ellipse class="cls-5" cx="1667.75" cy="297.68" rx="7" ry="4" transform="translate(1228.71 1933.91) rotate(-85.1)"/>
      <ellipse class="cls-5" cx="1603.81" cy="283.67" rx="7" ry="4" transform="translate(861.34 1733.3) rotate(-72.91)"/>
      <ellipse class="cls-5" cx="1622.82" cy="298.06" rx="7" ry="4" transform="translate(1187.24 1889.49) rotate(-85.1)"/>
      <ellipse class="cls-5" cx="1630.71" cy="307.19" rx="4" ry="7" transform="translate(-28.33 272.78) rotate(-9.48)"/>
      <ellipse class="cls-5" cx="1622.6" cy="324.02" rx="7" ry="4" transform="translate(743.26 1725.65) rotate(-69.19)"/>
      <ellipse class="cls-5" cx="1630.71" cy="339.19" rx="4" ry="7" transform="translate(-34.81 356.92) rotate(-12.36)"/>
      <line class="cls-4" x1="1629.5" y1="431.28" x2="1626.68" y2="284.18"/>
      <path class="cls-2" d="M1644.5,470.28c-.65-.16,26.03-67.23,14-148-3.68-24.7-9.53-40.99-9.97-40.89-.8.17,17.72,53.86,11.97,119.89-3.69,42.42-15.59,69.1-16,69Z"/>
      <path class="cls-2" d="M1630.5,449.28c-3.95-8.74-8.07-19.82-11-33-3.56-16-4.26-30.1-4-41-.26,10.9.44,25,4,41,2.93,13.18,7.05,24.26,11,33Z"/>
      <path class="cls-2" d="M1628.5,528.28c16.03-11.92,27.16-24.63,35-36,57.41-83.31,8.32-196.6,1.77-211.15,20.38,42.94,24.51,80.29,25.23,102.15.75,22.77,1.36,49.77-12,81-14.39,33.65-37.27,54.16-50,64Z"/>
      <path class="cls-2" d="M1727.84,418.96c-6.52-15.67-13.28-35.58-17.97-59.29-5.69-28.78-6.57-54.22-5.86-73.89-.7,19.67.17,45.11,5.86,73.89,4.69,23.71,11.45,43.62,17.97,59.29h0Z"/>
      <line class="cls-4" x1="1667.5" y1="498.28" x2="1673.79" y2="387.88"/>
      <path class="cls-2" d="M1701.5,561.28c-9.7-30.19-10.81-54.39-10-71,.77-15.74,3.07-20.96,7-54,2.13-17.93,4.66-39.19,5-56,.43-20.79-2.13-52.42-18.08-92.17,16.73,42.76,19.11,77.27,18.08,101.17-1.99,46.27-17.85,78.08-10,135,2.19,15.89,5.54,28.71,8,37Z"/>
      <ellipse class="cls-5" cx="1625.95" cy="357.75" rx="7" ry="4" transform="translate(806.17 1806.78) rotate(-72.91)"/>
      <ellipse class="cls-5" cx="1624.93" cy="376.76" rx="7" ry="4" transform="translate(1036.03 1937.38) rotate(-82.38)"/>
      <ellipse class="cls-5" cx="1632.7" cy="398.63" rx="4" ry="7" transform="translate(19.42 869.75) rotate(-30)"/>
      <ellipse class="cls-5" cx="1627.63" cy="413.61" rx="7" ry="4" transform="translate(1001.85 1972.02) rotate(-82.38)"/>
      <ellipse class="cls-5" cx="1630.63" cy="431.6" rx="7" ry="4" transform="translate(986.61 1990.6) rotate(-82.38)"/>
      <ellipse class="cls-5" cx="1613.3" cy="379.91" rx="3.94" ry="1.91" transform="translate(1022.81 1928.59) rotate(-82.38)"/>
      <ellipse class="cls-5" cx="1617.69" cy="385.6" rx="1.91" ry="3.94" transform="translate(-10.34 724.91) rotate(-25.18)"/>
      <ellipse class="cls-5" cx="1614.03" cy="396.03" rx="3.94" ry="1.91" transform="translate(1007.48 1943.3) rotate(-82.38)"/>
      <ellipse class="cls-5" cx="1615.04" cy="407.03" rx="3.94" ry="1.91" transform="translate(997.45 1953.83) rotate(-82.38)"/>
      <ellipse class="cls-5" cx="1619.52" cy="401.67" rx="1.91" ry="3.94" transform="translate(41.37 943.55) rotate(-32.88)"/>
      <ellipse class="cls-5" cx="1617.24" cy="416.68" rx="3.94" ry="1.91" transform="translate(989.79 1964.38) rotate(-82.38)"/>
      <ellipse class="cls-5" cx="1620.24" cy="427.68" rx="3.94" ry="1.91" transform="translate(981.49 1976.9) rotate(-82.38)"/>
      <ellipse class="cls-5" cx="1623.26" cy="420.59" rx="1.91" ry="3.94" transform="translate(76.45 1068.08) rotate(-37.24)"/>
      <ellipse class="cls-5" cx="1626.24" cy="445.68" rx="3.94" ry="1.91" transform="translate(968.86 1998.46) rotate(-82.38)"/>
      <ellipse class="cls-5" cx="1628.31" cy="436.71" rx="1.91" ry="3.94" transform="translate(168.12 1279.3) rotate(-45)"/>
      <ellipse class="cls-5" cx="1622.89" cy="436.87" rx="3.94" ry="1.91" transform="translate(974.68 1987.5) rotate(-82.38)"/>
      <ellipse class="cls-5" cx="1650.99" cy="308.78" rx="7" ry="4" transform="translate(985.46 1850.91) rotate(-77.25)"/>
      <ellipse class="cls-5" cx="1654.89" cy="329.71" rx="7" ry="4" transform="translate(699.18 1720.39) rotate(-66.77)"/>
      <ellipse class="cls-5" cx="1661.5" cy="316.3" rx="4" ry="7" transform="translate(64.45 873.13) rotate(-30)"/>
      <ellipse class="cls-5" cx="1656.09" cy="346.33" rx="7" ry="4" transform="translate(1093.22 1941.87) rotate(-82.38)"/>
      <ellipse class="cls-5" cx="1658.05" cy="364.27" rx="7" ry="4" transform="translate(669.34 1744.23) rotate(-66.77)"/>
      <ellipse class="cls-5" cx="1664.18" cy="348.43" rx="4" ry="7" transform="translate(-18.26 594.01) rotate(-20.13)"/>
      <ellipse class="cls-5" cx="1656.54" cy="388.95" rx="7" ry="4" transform="translate(645.74 1757.78) rotate(-66.77)"/>
      <ellipse class="cls-5" cx="1662.64" cy="407.12" rx="4" ry="7" transform="translate(-24.35 116.97) rotate(-4)"/>
      <ellipse class="cls-5" cx="1650.8" cy="430.9" rx="4" ry="7" transform="translate(-26.04 116.2) rotate(-4)"/>
      <ellipse class="cls-5" cx="1657.8" cy="441.89" rx="4" ry="7" transform="translate(-26.79 116.72) rotate(-4)"/>
      <ellipse class="cls-5" cx="1645.31" cy="453.06" rx="7" ry="4" transform="translate(430.29 1651.41) rotate(-60)"/>
      <ellipse class="cls-5" cx="1648.29" cy="468.14" rx="4" ry="7" transform="translate(-28.64 116.12) rotate(-4)"/>
      <ellipse class="cls-5" cx="1656" cy="294.78" rx="4" ry="7" transform="translate(74.47 867.49) rotate(-30)"/>
      <ellipse class="cls-5" cx="1652.54" cy="285.31" rx="4" ry="7" transform="translate(78.74 864.49) rotate(-30)"/>
      <ellipse class="cls-5" cx="1648.21" cy="291.83" rx="4" ry="7" transform="translate(74.9 863.2) rotate(-30)"/>
      <ellipse class="cls-5" cx="1634.93" cy="287.87" rx="4" ry="7" transform="translate(75.1 856.03) rotate(-30)"/>
      <ellipse class="cls-5" cx="1612.92" cy="284.84" rx="7" ry="4" transform="translate(32.08 713.31) rotate(-25.18)"/>
      <ellipse class="cls-5" cx="1664.92" cy="282.36" rx="4" ry="7" transform="translate(809.48 1738.35) rotate(-69.19)"/>
      <ellipse class="cls-5" cx="1673.91" cy="314.39" rx="7" ry="4" transform="translate(1217.69 1955.32) rotate(-85.1)"/>
      <ellipse class="cls-5" cx="1678.95" cy="302.31" rx="4" ry="7" transform="translate(159.38 1077.66) rotate(-37.24)"/>
      <ellipse class="cls-5" cx="1664.01" cy="286.42" rx="7" ry="4" transform="translate(1017.41 1846.19) rotate(-77.25)"/>
      <ellipse class="cls-5" cx="1677.91" cy="324.4" rx="7" ry="4" transform="translate(1211.38 1968.47) rotate(-85.1)"/>
      <ellipse class="cls-5" cx="1681.01" cy="317.43" rx="4" ry="7" transform="translate(66.5 883.03) rotate(-30)"/>
      <ellipse class="cls-5" cx="1680.59" cy="341.14" rx="7" ry="4" transform="translate(1197.15 1986.45) rotate(-85.1)"/>
      <ellipse class="cls-5" cx="1690.7" cy="352.26" rx="4" ry="7" transform="translate(-17.95 603.37) rotate(-20.13)"/>
      <ellipse class="cls-5" cx="1685.58" cy="375.14" rx="7" ry="4" transform="translate(1167.84 2022.52) rotate(-85.1)"/>
      <ellipse class="cls-5" cx="1694.75" cy="385.9" rx="4" ry="7" transform="translate(-42.06 453.6) rotate(-15.06)"/>
      <ellipse class="cls-5" cx="1686.79" cy="403.39" rx="7" ry="4" transform="translate(1140.8 2049.56) rotate(-85.1)"/>
      <ellipse class="cls-5" cx="1693.91" cy="419.47" rx="4" ry="7" transform="translate(-50.81 454.54) rotate(-15.06)"/>
      <ellipse class="cls-5" cx="1682.91" cy="431.42" rx="7" ry="4" transform="translate(467.83 1673.16) rotate(-60)"/>
      <ellipse class="cls-5" cx="1687.11" cy="449.44" rx="7" ry="4" transform="translate(1142.47 2108.26) rotate(-86.74)"/>
      <ellipse class="cls-5" cx="1673.21" cy="465.43" rx="7" ry="4" transform="translate(15.36 982.91) rotate(-32.88)"/>
      <ellipse class="cls-5" cx="1672.7" cy="484.21" rx="7" ry="4" transform="translate(1047.38 2109.44) rotate(-85.1)"/>
      <ellipse class="cls-5" cx="1657.7" cy="507.21" rx="7" ry="4" transform="translate(1010.75 2115.53) rotate(-85.1)"/>
      <ellipse class="cls-5" cx="1640.71" cy="523.2" rx="7" ry="4" transform="translate(979.27 2113.23) rotate(-85.1)"/>
      <ellipse class="cls-5" cx="1630.76" cy="523.13" rx="7" ry="4" transform="translate(15.93 1093.53) rotate(-37.24)"/>
      <ellipse class="cls-5" cx="1642.81" cy="511.32" rx="7" ry="4" transform="translate(-76.43 444.41) rotate(-15.06)"/>
      <ellipse class="cls-5" cx="1656.81" cy="493.28" rx="7" ry="4" transform="translate(-63.77 326.1) rotate(-11.03)"/>
      <ellipse class="cls-5" cx="1676.09" cy="391.22" rx="1.91" ry="3.94" transform="translate(56.11 972.59) rotate(-32.88)"/>
      <ellipse class="cls-5" cx="1675.09" cy="401.22" rx="1.91" ry="3.94" transform="translate(50.52 973.65) rotate(-32.88)"/>
      <ellipse class="cls-5" cx="1670" cy="413.19" rx="3.94" ry="1.91" transform="translate(631.62 1784.83) rotate(-66.77)"/>
      <ellipse class="cls-5" cx="1669.83" cy="429.13" rx="3.94" ry="1.91" transform="translate(822.35 1930.54) rotate(-74.97)"/>
      <ellipse class="cls-5" cx="1673.75" cy="421.14" rx="1.91" ry="3.94" transform="translate(-51.94 449.36) rotate(-15.06)"/>
      <ellipse class="cls-5" cx="1672.95" cy="440.77" rx="1.91" ry="3.94" transform="translate(-57.07 449.82) rotate(-15.06)"/>
      <ellipse class="cls-5" cx="1671.95" cy="452.76" rx="1.91" ry="3.94" transform="translate(-60.22 449.97) rotate(-15.06)"/>
      <ellipse class="cls-5" cx="1667.56" cy="461.14" rx="3.94" ry="1.91" transform="translate(647.97 1858.94) rotate(-69.35)"/>
      <ellipse class="cls-5" cx="1666.76" cy="477.26" rx="3.94" ry="1.91" transform="translate(632.37 1868.63) rotate(-69.35)"/>
      <ellipse class="cls-5" cx="1668.96" cy="493.66" rx="1.91" ry="3.94" transform="translate(-70.95 450.6) rotate(-15.06)"/>
      <ellipse class="cls-5" cx="1666.03" cy="498.63" rx="3.94" ry="1.91" transform="translate(705.12 1948.09) rotate(-73.12)"/>
      <ellipse class="cls-5" cx="1694.22" cy="300.92" rx="4" ry="7" transform="translate(28.88 734.04) rotate(-24.65)"/>
      <ellipse class="cls-5" cx="1694.24" cy="322" rx="4" ry="7"/>
      <ellipse class="cls-5" cx="1702.19" cy="333.89" rx="4" ry="7" transform="translate(145.01 1098.16) rotate(-37.24)"/>
      <ellipse class="cls-5" cx="1700.08" cy="364.82" rx="7" ry="4" transform="translate(906.87 1912.13) rotate(-74.97)"/>
      <ellipse class="cls-5" cx="1708.35" cy="382.64" rx="4" ry="7" transform="translate(-40.75 457.02) rotate(-15.06)"/>
      <ellipse class="cls-5" cx="1698.34" cy="401.57" rx="7" ry="4" transform="translate(723.63 1849.18) rotate(-69.35)"/>
      <ellipse class="cls-5" cx="1705.51" cy="416.8" rx="4" ry="7" transform="translate(-49.72 457.46) rotate(-15.06)"/>
      <ellipse class="cls-5" cx="1702.88" cy="436.65" rx="4" ry="7" transform="translate(-52.08 333.87) rotate(-11.03)"/>
      <ellipse class="cls-5" cx="1699" cy="456.78" rx="4" ry="7"/>
      <ellipse class="cls-5" cx="1693.25" cy="437.19" rx="7" ry="4" transform="translate(687.01 1867.47) rotate(-69.35)"/>
      <ellipse class="cls-5" cx="1694.79" cy="481.77" rx="4" ry="7" transform="translate(-60.87 333.15) rotate(-11.03)"/>
      <ellipse class="cls-5" cx="1686.88" cy="500.8" rx="7" ry="4" transform="translate(850.89 2049.19) rotate(-78.17)"/>
      <ellipse class="cls-5" cx="1694.71" cy="514.02" rx="4" ry="7" transform="translate(-75.35 457.99) rotate(-15.06)"/>
      <ellipse class="cls-5" cx="1690.8" cy="533" rx="7" ry="4" transform="translate(822.5 2078.62) rotate(-78.17)"/>
      <ellipse class="cls-5" cx="1694.81" cy="550" rx="7" ry="4" transform="translate(809.04 2096.06) rotate(-78.17)"/>
      <ellipse class="cls-5" cx="1704.74" cy="559.03" rx="4" ry="7" transform="translate(34.65 1214.35) rotate(-39.58)"/>
      <ellipse class="cls-5" cx="1707.45" cy="309.44" rx="4" ry="7" transform="translate(26.53 740.33) rotate(-24.65)"/>
      <ellipse class="cls-5" cx="1703.36" cy="321.5" rx="7" ry="4" transform="translate(1237.53 1991.17) rotate(-85.1)"/>
      <ellipse class="cls-5" cx="1711.66" cy="351.98" rx="4" ry="7" transform="translate(9.18 745.96) rotate(-24.65)"/>
      <ellipse class="cls-5" cx="1716.42" cy="372.71" rx="4" ry="7" transform="translate(124.42 1114.69) rotate(-37.24)"/>
      <ellipse class="cls-5" cx="1715.89" cy="394.08" rx="4" ry="7" transform="translate(-23.31 120.65) rotate(-4)"/>
      <ellipse class="cls-5" cx="1725.85" cy="405.86" rx="4" ry="7" transform="translate(106.28 1127.16) rotate(-37.24)"/>
      <ellipse class="cls-5" cx="1725.49" cy="421.66" rx="4" ry="7" transform="translate(-25.21 121.39) rotate(-4)"/>
      <path class="cls-2" d="M1605.5,374.28c-4.81-15.91-6.45-29.38-7-39-.49-8.56-.2-15.49,0-20,.58-13.2,2.2-24.25,3.72-32.37-2.82,13.15-5.22,31.15-3.72,52.37,1.09,15.34,3.94,28.52,7,39Z"/>
      <ellipse class="cls-5" cx="1596.69" cy="307.32" rx="7" ry="4" transform="translate(742.16 1690.67) rotate(-69.19)"/>
      <ellipse class="cls-5" cx="1601.8" cy="328.46" rx="4" ry="7" transform="translate(-15.19 571.33) rotate(-20.13)"/>
      <ellipse class="cls-5" cx="1599.79" cy="293.38" rx="7" ry="4" transform="translate(261.12 1217.15) rotate(-45)"/>
      <ellipse class="cls-5" cx="1636.69" cy="277.31" rx="7" ry="4" transform="translate(796 1708.71) rotate(-69.19)"/>
      <ellipse class="cls-5" cx="1664.68" cy="276.31" rx="7" ry="4" transform="translate(814.98 1734.23) rotate(-69.19)"/>
      <ellipse class="cls-5" cx="1603.79" cy="348.48" rx="4" ry="7" transform="translate(-37.42 351.37) rotate(-12.36)"/>
      <ellipse class="cls-5" cx="1597.69" cy="364.32" rx="7" ry="4" transform="translate(689.53 1728.35) rotate(-69.19)"/>
      <ellipse class="cls-5" cx="1606.79" cy="374.48" rx="4" ry="7" transform="translate(-42.92 352.62) rotate(-12.36)"/>
    </g>
  </g>
</svg>