<?xml version="1.0" encoding="UTF-8"?>
<svg id="Layer_2" data-name="Layer 2" xmlns="http://www.w3.org/2000/svg" viewBox="0 0 1920 1080.2">
  <defs>
    <style>
      .cls-1 {
        fill: #765c43;
        isolation: isolate;
        opacity: .53;
      }

      .cls-1, .cls-2, .cls-3, .cls-4 {
        stroke-miterlimit: 10;
      }

      .cls-1, .cls-3 {
        stroke: #765c43;
      }

      .cls-2, .cls-4 {
        stroke: #39553f;
      }

      .cls-2, .cls-5 {
        fill: #39553f;
      }

      .cls-3 {
        stroke-width: 2px;
      }

      .cls-3, .cls-4 {
        fill: none;
      }

      .cls-5, .cls-6, .cls-7 {
        stroke-width: 0px;
      }

      .cls-6 {
        fill: #c6a788;
      }

      .cls-7 {
        fill: #fff7f8;
      }
    </style>
  </defs>
  <g id="Layer_2-2" data-name="Layer 2">
    <g id="baggrund">
      <rect class="cls-7" y=".2" width="1920" height="1080"/>
    </g>
    <g id="Krukke">
      <path class="cls-6" d="M1561.91,236.06c-1.05,6.87-4.02,24.56-19,38.87-22.89,21.87-53.69,16.59-56,16.15-17.08-3.26-28.47-12.83-33.46-17.69-25.21-24.57-31.55-69.69-14.02-87.03,4.33-4.29,8.04-4.69,59.6-5.18,32.25-.31,42.58-.27,49.03,3.48,1.98,1.15,3.56,2.73,3.56,2.73,4.6,4.37,6.22,9.85,7.29,14.67,2.94,13.27,4.85,21.9,3,34h0Z"/>
    </g>
    <g id="Layer_3" data-name="Layer 3">
      <path class="cls-1" d="M1533.23,281.73s-16.72,11.06-43.82,8.82c-1.69-.14-4.43-.47-5.51-2.34-3.08-5.31,10.15-17.93,14.51-22.71,35.79-39.21,35.23-82.45,47.81-81.46,9.97.79,14.54,28.27,14.84,30.11,3.88,24.38-5.69,52.93-27.82,67.57h-.01Z"/>
    </g>
    <g id="snore">
      <line class="cls-3" x1="1445.91" y1="196.55" x2="1481.91" y2=".77"/>
      <line class="cls-3" x1="1467.05" y1="186.38" x2="1489" y2=".2"/>
      <line class="cls-3" x1="1548.14" y1="197.84" x2="1502.91" y2=".77"/>
      <line class="cls-3" x1="1536.14" y1="183.29" x2="1498.91" y2=".2"/>
    </g>
    <g id="blade">
      <ellipse class="cls-5" cx="1452.91" cy="181.06" rx="4" ry="7"/>
      <ellipse class="cls-5" cx="1459.91" cy="182.17" rx="4" ry="7" transform="translate(-10.07 242.94) rotate(-9.48)"/>
      <ellipse class="cls-5" cx="1466.91" cy="182.06" rx="4" ry="7"/>
      <ellipse class="cls-5" cx="1472.8" cy="182.03" rx="7" ry="4" transform="translate(1165.63 1633.9) rotate(-85.1)"/>
      <ellipse class="cls-5" cx="1480.91" cy="182.06" rx="4" ry="7"/>
      <ellipse class="cls-5" cx="1484.91" cy="191.06" rx="4" ry="7"/>
      <ellipse class="cls-5" cx="1488.8" cy="181.04" rx="7" ry="4" transform="translate(1181.25 1648.93) rotate(-85.1)"/>
      <ellipse class="cls-5" cx="1495.91" cy="183.92" rx="4" ry="7" transform="translate(-11.06 208.67) rotate(-7.95)"/>
      <ellipse class="cls-5" cx="1496.29" cy="176.01" rx="4" ry="7" transform="translate(62.94 640.1) rotate(-24.65)"/>
      <ellipse class="cls-5" cx="1503.9" cy="182.06" rx="7" ry="4" transform="translate(994.42 1608.7) rotate(-77.25)"/>
      <ellipse class="cls-5" cx="1510.91" cy="184.06" rx="4" ry="7"/>
      <ellipse class="cls-5" cx="1512.91" cy="176.06" rx="4" ry="7"/>
      <ellipse class="cls-5" cx="1518.91" cy="186.06" rx="4" ry="7"/>
      <ellipse class="cls-5" cx="1516.91" cy="181.06" rx="4" ry="7"/>
      <ellipse class="cls-5" cx="1522.91" cy="179.06" rx="4" ry="7"/>
      <ellipse class="cls-5" cx="1528.79" cy="179.03" rx="7" ry="4" transform="translate(1219.83 1686.95) rotate(-85.1)"/>
      <ellipse class="cls-5" cx="1527.65" cy="187.96" rx="7" ry="4" transform="translate(1209.89 1693.97) rotate(-85.1)"/>
      <ellipse class="cls-5" cx="1534.65" cy="181.95" rx="7" ry="4" transform="translate(1222.28 1695.46) rotate(-85.1)"/>
      <ellipse class="cls-5" cx="1541.66" cy="177.96" rx="7" ry="4" transform="translate(1232.66 1698.78) rotate(-85.1)"/>
      <ellipse class="cls-5" cx="1540.65" cy="185.96" rx="7" ry="4" transform="translate(1223.78 1705.09) rotate(-85.1)"/>
      <ellipse class="cls-5" cx="1549.65" cy="182.95" rx="7" ry="4" transform="translate(1235 1711.31) rotate(-85.1)"/>
      <ellipse class="cls-5" cx="1507.66" cy="197.96" rx="7" ry="4" transform="translate(1181.64 1683.2) rotate(-85.1)"/>
      <ellipse class="cls-5" cx="1443.71" cy="183.96" rx="7" ry="4" transform="translate(843.61 1509.86) rotate(-72.91)"/>
      <ellipse class="cls-5" cx="1462.73" cy="198.34" rx="7" ry="4" transform="translate(1140.17 1638.78) rotate(-85.1)"/>
      <ellipse class="cls-5" cx="1470.62" cy="207.47" rx="4" ry="7" transform="translate(-14.09 245.05) rotate(-9.48)"/>
      <ellipse class="cls-5" cx="1462.51" cy="224.3" rx="7" ry="4" transform="translate(733.26 1511.71) rotate(-69.19)"/>
      <ellipse class="cls-5" cx="1470.62" cy="239.47" rx="4" ry="7" transform="translate(-17.17 320.34) rotate(-12.36)"/>
      <line class="cls-4" x1="1469.41" y1="331.56" x2="1466.59" y2="184.46"/>
      <path class="cls-2" d="M1484.41,370.56c-.65-.16,26.03-67.23,14-148-3.68-24.7-9.53-40.99-9.97-40.89-.8.17,17.72,53.86,11.97,119.89-3.69,42.42-15.59,69.1-16,69Z"/>
      <path class="cls-2" d="M1470.41,349.56c-3.95-8.74-8.07-19.82-11-33-3.56-16-4.26-30.1-4-41-.26,10.9.44,25,4,41,2.93,13.18,7.05,24.26,11,33Z"/>
      <path class="cls-2" d="M1468.41,428.56c16.03-11.92,27.16-24.63,35-36,57.41-83.31,8.32-196.6,1.77-211.15,20.38,42.94,24.51,80.29,25.23,102.15.75,22.77,1.36,49.77-12,81-14.39,33.65-37.27,54.16-50,64Z"/>
      <path class="cls-2" d="M1567.75,319.24c-6.52-15.67-13.28-35.58-17.97-59.29-5.69-28.78-6.57-54.22-5.86-73.89-.7,19.67.17,45.11,5.86,73.89,4.69,23.71,11.45,43.62,17.97,59.29h0Z"/>
      <line class="cls-4" x1="1507.41" y1="398.56" x2="1513.7" y2="288.16"/>
      <path class="cls-2" d="M1541.41,461.56c-9.7-30.19-10.81-54.39-10-71,.77-15.74,3.07-20.96,7-54,2.13-17.93,4.66-39.19,5-56,.43-20.79-2.13-52.42-18.08-92.17,16.73,42.76,19.11,77.27,18.08,101.17-1.99,46.27-17.85,78.08-10,135,2.19,15.89,5.54,28.71,8,37Z"/>
      <ellipse class="cls-5" cx="1465.86" cy="258.04" rx="7" ry="4" transform="translate(788.44 1583.34) rotate(-72.91)"/>
      <ellipse class="cls-5" cx="1464.83" cy="277.04" rx="7" ry="4" transform="translate(996 1692.2) rotate(-82.38)"/>
      <ellipse class="cls-5" cx="1472.6" cy="298.91" rx="4" ry="7" transform="translate(47.83 776.35) rotate(-30)"/>
      <ellipse class="cls-5" cx="1467.54" cy="313.89" rx="7" ry="4" transform="translate(961.82 1726.85) rotate(-82.38)"/>
      <ellipse class="cls-5" cx="1470.54" cy="331.89" rx="7" ry="4" transform="translate(946.58 1745.43) rotate(-82.38)"/>
      <ellipse class="cls-5" cx="1453.2" cy="280.2" rx="3.94" ry="1.91" transform="translate(982.78 1683.41) rotate(-82.38)"/>
      <ellipse class="cls-5" cx="1457.59" cy="285.88" rx="1.91" ry="3.94" transform="translate(16.88 647.32) rotate(-25.18)"/>
      <ellipse class="cls-5" cx="1453.94" cy="296.31" rx="3.94" ry="1.91" transform="translate(967.45 1698.12) rotate(-82.38)"/>
      <ellipse class="cls-5" cx="1454.95" cy="307.31" rx="3.94" ry="1.91" transform="translate(957.42 1708.66) rotate(-82.38)"/>
      <ellipse class="cls-5" cx="1459.43" cy="301.95" rx="1.91" ry="3.94" transform="translate(69.86 840.67) rotate(-32.88)"/>
      <ellipse class="cls-5" cx="1457.14" cy="316.96" rx="3.94" ry="1.91" transform="translate(949.76 1719.2) rotate(-82.38)"/>
      <ellipse class="cls-5" cx="1460.14" cy="327.96" rx="3.94" ry="1.91" transform="translate(941.46 1731.72) rotate(-82.38)"/>
      <ellipse class="cls-5" cx="1463.17" cy="320.88" rx="1.91" ry="3.94" transform="translate(104.15 950.87) rotate(-37.24)"/>
      <ellipse class="cls-5" cx="1466.15" cy="345.96" rx="3.94" ry="1.91" transform="translate(928.83 1753.29) rotate(-82.38)"/>
      <ellipse class="cls-5" cx="1468.21" cy="336.99" rx="1.91" ry="3.94" transform="translate(191.74 1136.89) rotate(-45)"/>
      <ellipse class="cls-5" cx="1462.79" cy="337.16" rx="3.94" ry="1.91" transform="translate(934.65 1742.32) rotate(-82.38)"/>
      <ellipse class="cls-5" cx="1490.89" cy="209.06" rx="7" ry="4" transform="translate(957.95 1617.05) rotate(-77.25)"/>
      <ellipse class="cls-5" cx="1494.8" cy="229.99" rx="7" ry="4" transform="translate(693.87 1512.89) rotate(-66.77)"/>
      <ellipse class="cls-5" cx="1501.41" cy="216.58" rx="4" ry="7" transform="translate(92.86 779.72) rotate(-30)"/>
      <ellipse class="cls-5" cx="1496" cy="246.61" rx="7" ry="4" transform="translate(1053.19 1696.69) rotate(-82.38)"/>
      <ellipse class="cls-5" cx="1497.96" cy="264.55" rx="7" ry="4" transform="translate(664.02 1536.73) rotate(-66.77)"/>
      <ellipse class="cls-5" cx="1504.08" cy="248.71" rx="4" ry="7" transform="translate(6.28 532.83) rotate(-20.13)"/>
      <ellipse class="cls-5" cx="1496.44" cy="289.24" rx="7" ry="4" transform="translate(640.42 1550.28) rotate(-66.77)"/>
      <ellipse class="cls-5" cx="1502.54" cy="307.4" rx="4" ry="7" transform="translate(-17.78 105.56) rotate(-4)"/>
      <ellipse class="cls-5" cx="1490.71" cy="331.18" rx="4" ry="7" transform="translate(-19.47 104.79) rotate(-4)"/>
      <ellipse class="cls-5" cx="1497.71" cy="342.17" rx="4" ry="7" transform="translate(-20.22 105.31) rotate(-4)"/>
      <ellipse class="cls-5" cx="1485.21" cy="353.34" rx="7" ry="4" transform="translate(436.6 1462.9) rotate(-60)"/>
      <ellipse class="cls-5" cx="1488.19" cy="368.42" rx="4" ry="7" transform="translate(-22.07 104.71) rotate(-4)"/>
      <ellipse class="cls-5" cx="1495.91" cy="195.07" rx="4" ry="7" transform="translate(102.88 774.09) rotate(-30)"/>
      <ellipse class="cls-5" cx="1492.44" cy="185.6" rx="4" ry="7" transform="translate(107.15 771.09) rotate(-30)"/>
      <ellipse class="cls-5" cx="1488.11" cy="192.12" rx="4" ry="7" transform="translate(103.31 769.8) rotate(-30)"/>
      <ellipse class="cls-5" cx="1474.83" cy="188.16" rx="4" ry="7" transform="translate(103.51 762.62) rotate(-30)"/>
      <ellipse class="cls-5" cx="1452.83" cy="185.12" rx="7" ry="4" transform="translate(59.29 635.72) rotate(-25.18)"/>
      <ellipse class="cls-5" cx="1504.82" cy="182.65" rx="4" ry="7" transform="translate(799.47 1524.41) rotate(-69.19)"/>
      <ellipse class="cls-5" cx="1513.81" cy="214.67" rx="7" ry="4" transform="translate(1170.62 1704.61) rotate(-85.1)"/>
      <ellipse class="cls-5" cx="1518.86" cy="202.59" rx="4" ry="7" transform="translate(187.09 960.45) rotate(-37.24)"/>
      <ellipse class="cls-5" cx="1503.92" cy="186.71" rx="7" ry="4" transform="translate(989.9 1612.33) rotate(-77.25)"/>
      <ellipse class="cls-5" cx="1517.82" cy="224.68" rx="7" ry="4" transform="translate(1164.31 1717.76) rotate(-85.1)"/>
      <ellipse class="cls-5" cx="1520.91" cy="217.71" rx="4" ry="7" transform="translate(94.91 789.62) rotate(-30)"/>
      <ellipse class="cls-5" cx="1520.5" cy="241.42" rx="7" ry="4" transform="translate(1150.08 1735.74) rotate(-85.1)"/>
      <ellipse class="cls-5" cx="1530.61" cy="252.54" rx="4" ry="7" transform="translate(6.59 542.19) rotate(-20.13)"/>
      <ellipse class="cls-5" cx="1525.49" cy="275.42" rx="7" ry="4" transform="translate(1120.77 1771.81) rotate(-85.1)"/>
      <ellipse class="cls-5" cx="1534.65" cy="286.18" rx="4" ry="7" transform="translate(-21.65 408.58) rotate(-15.06)"/>
      <ellipse class="cls-5" cx="1526.7" cy="303.67" rx="7" ry="4" transform="translate(1093.73 1798.85) rotate(-85.1)"/>
      <ellipse class="cls-5" cx="1533.82" cy="319.76" rx="4" ry="7" transform="translate(-30.4 409.52) rotate(-15.06)"/>
      <ellipse class="cls-5" cx="1522.82" cy="331.71" rx="7" ry="4" transform="translate(474.14 1484.65) rotate(-60)"/>
      <ellipse class="cls-5" cx="1527.02" cy="349.72" rx="7" ry="4" transform="translate(1091.03 1854.38) rotate(-86.74)"/>
      <ellipse class="cls-5" cx="1513.11" cy="365.71" rx="7" ry="4" transform="translate(43.85 880.02) rotate(-32.88)"/>
      <ellipse class="cls-5" cx="1512.61" cy="384.49" rx="7" ry="4" transform="translate(1000.32 1858.73) rotate(-85.1)"/>
      <ellipse class="cls-5" cx="1497.6" cy="407.49" rx="7" ry="4" transform="translate(963.68 1864.82) rotate(-85.1)"/>
      <ellipse class="cls-5" cx="1480.61" cy="423.49" rx="7" ry="4" transform="translate(932.2 1862.52) rotate(-85.1)"/>
      <ellipse class="cls-5" cx="1470.67" cy="423.41" rx="7" ry="4" transform="translate(43.63 976.31) rotate(-37.24)"/>
      <ellipse class="cls-5" cx="1482.72" cy="411.6" rx="7" ry="4" transform="translate(-56.02 399.39) rotate(-15.06)"/>
      <ellipse class="cls-5" cx="1496.72" cy="393.56" rx="7" ry="4" transform="translate(-47.65 293.63) rotate(-11.03)"/>
      <ellipse class="cls-5" cx="1516" cy="291.51" rx="1.91" ry="3.94" transform="translate(84.6 869.7) rotate(-32.88)"/>
      <ellipse class="cls-5" cx="1515" cy="301.51" rx="1.91" ry="3.94" transform="translate(79.01 870.76) rotate(-32.88)"/>
      <ellipse class="cls-5" cx="1509.91" cy="313.47" rx="3.94" ry="1.91" transform="translate(626.3 1577.33) rotate(-66.77)"/>
      <ellipse class="cls-5" cx="1509.73" cy="329.41" rx="3.94" ry="1.91" transform="translate(800.08 1702.07) rotate(-74.97)"/>
      <ellipse class="cls-5" cx="1513.66" cy="321.43" rx="1.91" ry="3.94" transform="translate(-31.53 404.33) rotate(-15.06)"/>
      <ellipse class="cls-5" cx="1512.86" cy="341.05" rx="1.91" ry="3.94" transform="translate(-36.65 404.8) rotate(-15.06)"/>
      <ellipse class="cls-5" cx="1511.85" cy="353.05" rx="1.91" ry="3.94" transform="translate(-39.81 404.95) rotate(-15.06)"/>
      <ellipse class="cls-5" cx="1507.47" cy="361.42" rx="3.94" ry="1.91" transform="translate(637.65 1644.58) rotate(-69.35)"/>
      <ellipse class="cls-5" cx="1506.67" cy="377.54" rx="3.94" ry="1.91" transform="translate(622.04 1654.27) rotate(-69.35)"/>
      <ellipse class="cls-5" cx="1508.87" cy="393.94" rx="1.91" ry="3.94" transform="translate(-50.53 405.58) rotate(-15.06)"/>
      <ellipse class="cls-5" cx="1505.93" cy="398.92" rx="3.94" ry="1.91" transform="translate(686.93 1724.14) rotate(-73.12)"/>
      <ellipse class="cls-5" cx="1534.12" cy="201.2" rx="4" ry="7" transform="translate(55.88 658.18) rotate(-24.65)"/>
      <ellipse class="cls-5" cx="1534.15" cy="222.28" rx="4" ry="7"/>
      <ellipse class="cls-5" cx="1542.09" cy="234.17" rx="4" ry="7" transform="translate(172.71 980.95) rotate(-37.24)"/>
      <ellipse class="cls-5" cx="1539.99" cy="265.1" rx="7" ry="4" transform="translate(884.6 1683.66) rotate(-74.97)"/>
      <ellipse class="cls-5" cx="1548.25" cy="282.92" rx="4" ry="7" transform="translate(-20.34 412) rotate(-15.06)"/>
      <ellipse class="cls-5" cx="1538.25" cy="301.86" rx="7" ry="4" transform="translate(713.31 1634.83) rotate(-69.35)"/>
      <ellipse class="cls-5" cx="1545.41" cy="317.08" rx="4" ry="7" transform="translate(-29.31 412.44) rotate(-15.06)"/>
      <ellipse class="cls-5" cx="1542.78" cy="336.93" rx="4" ry="7" transform="translate(-35.96 301.39) rotate(-11.03)"/>
      <ellipse class="cls-5" cx="1538.91" cy="357.06" rx="4" ry="7"/>
      <ellipse class="cls-5" cx="1533.16" cy="337.47" rx="7" ry="4" transform="translate(676.69 1653.11) rotate(-69.35)"/>
      <ellipse class="cls-5" cx="1534.7" cy="382.06" rx="4" ry="7" transform="translate(-44.75 300.68) rotate(-11.03)"/>
      <ellipse class="cls-5" cx="1526.79" cy="401.09" rx="7" ry="4" transform="translate(821.22 1813.22) rotate(-78.17)"/>
      <ellipse class="cls-5" cx="1534.62" cy="414.3" rx="4" ry="7" transform="translate(-54.94 412.97) rotate(-15.06)"/>
      <ellipse class="cls-5" cx="1530.71" cy="433.28" rx="7" ry="4" transform="translate(792.82 1842.65) rotate(-78.17)"/>
      <ellipse class="cls-5" cx="1534.72" cy="450.28" rx="7" ry="4" transform="translate(779.37 1860.09) rotate(-78.17)"/>
      <ellipse class="cls-5" cx="1544.65" cy="459.31" rx="4" ry="7" transform="translate(61.48 1089.48) rotate(-39.58)"/>
      <ellipse class="cls-5" cx="1547.36" cy="209.73" rx="4" ry="7" transform="translate(53.53 664.47) rotate(-24.65)"/>
      <ellipse class="cls-5" cx="1543.26" cy="221.79" rx="7" ry="4" transform="translate(1190.47 1740.47) rotate(-85.1)"/>
      <ellipse class="cls-5" cx="1551.56" cy="252.26" rx="4" ry="7" transform="translate(36.18 670.11) rotate(-24.65)"/>
      <ellipse class="cls-5" cx="1556.33" cy="273" rx="4" ry="7" transform="translate(152.12 997.48) rotate(-37.24)"/>
      <ellipse class="cls-5" cx="1555.79" cy="294.36" rx="4" ry="7" transform="translate(-16.74 109.24) rotate(-4)"/>
      <ellipse class="cls-5" cx="1565.75" cy="306.15" rx="4" ry="7" transform="translate(133.98 1009.94) rotate(-37.24)"/>
      <ellipse class="cls-5" cx="1565.39" cy="321.94" rx="4" ry="7" transform="translate(-18.64 109.98) rotate(-4)"/>
      <path class="cls-2" d="M1445.41,274.56c-4.81-15.91-6.45-29.38-7-39-.49-8.56-.2-15.49,0-20,.58-13.2,2.2-24.25,3.72-32.37-2.82,13.15-5.22,31.15-3.72,52.37,1.09,15.34,3.94,28.52,7,39Z"/>
      <ellipse class="cls-5" cx="1436.6" cy="207.6" rx="7" ry="4" transform="translate(732.16 1476.73) rotate(-69.19)"/>
      <ellipse class="cls-5" cx="1441.71" cy="228.74" rx="4" ry="7" transform="translate(9.35 510.14) rotate(-20.13)"/>
      <ellipse class="cls-5" cx="1439.7" cy="193.66" rx="7" ry="4" transform="translate(284.74 1074.74) rotate(-45)"/>
      <ellipse class="cls-5" cx="1476.6" cy="177.6" rx="7" ry="4" transform="translate(786 1494.77) rotate(-69.19)"/>
      <ellipse class="cls-5" cx="1504.59" cy="176.6" rx="7" ry="4" transform="translate(804.98 1520.29) rotate(-69.19)"/>
      <ellipse class="cls-5" cx="1443.69" cy="248.77" rx="4" ry="7" transform="translate(-19.79 314.79) rotate(-12.36)"/>
      <ellipse class="cls-5" cx="1437.6" cy="264.6" rx="7" ry="4" transform="translate(679.52 1514.41) rotate(-69.19)"/>
      <ellipse class="cls-5" cx="1446.7" cy="274.76" rx="4" ry="7" transform="translate(-25.28 316.04) rotate(-12.36)"/>
    </g>
  </g>
</svg>