<?xml version="1.0" encoding="UTF-8"?>
<svg id="Layer_2" data-name="Layer 2" xmlns="http://www.w3.org/2000/svg" viewBox="0 0 356.06 352.72">
  <defs>
    <style>
      .cls-1 {
        fill: #765c43;
        opacity: .53;
        stroke: #765c43;
        stroke-miterlimit: 10;
      }

      .cls-2 {
        fill: #497b72;
      }

      .cls-2, .cls-3, .cls-4 {
        stroke-width: 0px;
      }

      .cls-3 {
        fill: #39553f;
      }

      .cls-4 {
        fill: #c6a788;
      }
    </style>
  </defs>
  <g id="blade">
    <ellipse class="cls-2" cx="44.06" cy="187.88" rx="33.46" ry="83.36" transform="translate(-67.31 30.28) rotate(-22.05)"/>
    <ellipse class="cls-2" cx="92.09" cy="158.53" rx="109.62" ry="33.23" transform="translate(-77.25 228.77) rotate(-82.38)"/>
    <path class="cls-3" d="M111.18,51.9c-1.07,13.76-3.16,27.44-5.71,41.01-3.52,18.75-7.9,37.33-11.51,56.06-3.63,18.83-5.94,37.83-7.99,56.89-2.26,20.98-4.05,42.02-5.2,63.09.07.01.13.03.2.04,18.19,2.43,39.45-44.24,47.48-104.24,7.86-58.75.13-108.5-17.27-112.84Z"/>
    <path class="cls-3" d="M75.35,174.93c-17.28-42.66-45.17-71.63-62.29-64.7,15.51,53.1,42.48,102.24,57.37,155.54,1.82-.02,3.56-.35,5.21-1.02,17.13-6.94,17-47.15-.28-89.82Z"/>
    <ellipse class="cls-2" cx="295.4" cy="121.36" rx="112.37" ry="37.73" transform="translate(64.42 341.9) rotate(-66.01)"/>
    <path class="cls-3" d="M344.32,21.1c-4.73,13.23-10.6,26.16-16.96,38.9-8.79,17.6-18.51,34.84-27.39,52.4-8.93,17.65-16.41,35.75-23.6,53.95-7.92,20.04-15.33,40.24-22.03,60.6.07.02.15.05.22.08,20.03,6.2,56.09-34.97,80.54-91.96,23.94-55.8,27.87-106.07,9.22-113.97Z"/>
    <ellipse class="cls-2" cx="197.65" cy="123.34" rx="37.14" ry="111.87" transform="translate(-33.52 94.36) rotate(-24.82)"/>
    <path class="cls-3" d="M157.51,20.89c6.57,12.54,12.07,25.51,17.06,38.61,6.89,18.1,12.84,36.46,19.64,54.58,6.83,18.21,15.08,35.94,23.61,53.59,9.39,19.43,19.28,38.68,29.82,57.65.07-.02.15-.04.22-.07,19.48-6.72,14.77-57.84-10.53-114.17-24.76-55.16-60.07-94.86-79.82-90.19Z"/>
    <ellipse class="cls-2" cx="253.64" cy="109.46" rx="109.47" ry="33.23" transform="translate(142.47 362.36) rotate(-89.61)"/>
    <path class="cls-3" d="M259.15,1.43c.67,13.76.32,27.58-.5,41.34-1.13,19.02-3.13,37.97-4.36,56.99-1.23,19.11-1.12,38.22-.76,57.36.4,21.07,1.28,42.13,2.79,63.15.07,0,.14,0,.2,0,18.35.12,33.56-48.78,33.97-109.24.4-59.19-13.54-107.5-31.34-109.61Z"/>
  </g>
  <g id="Layer_7" data-name="Layer 7">
    <path class="cls-4" d="M322.18,273.86c-1.22,9.7-4.65,34.66-21.98,54.84-26.48,30.86-62.1,23.41-64.77,22.79-19.76-4.59-32.93-18.11-38.7-24.96-29.16-34.67-36.49-98.34-16.22-122.8,5.01-6.05,9.3-6.61,68.94-7.31,37.3-.44,49.25-.38,56.71,4.92,2.29,1.63,4.12,3.85,4.12,3.85,5.32,6.16,7.2,13.89,8.43,20.69,3.4,18.73,5.61,30.9,3.47,47.98Z"/>
    <path class="cls-1" d="M289,338.31s-19.34,15.61-50.68,12.45c-1.96-.2-5.12-.66-6.38-3.3-3.57-7.5,11.74-25.3,16.78-32.04,41.4-55.32,40.75-116.35,55.3-114.94,11.53,1.11,16.82,39.89,17.16,42.48,4.49,34.4-6.59,74.68-32.18,95.34Z"/>
    <path class="cls-4" d="M138.16,292.83c-1.05,6.87-4.02,24.56-19,38.87-22.89,21.87-53.69,16.59-56,16.15-17.08-3.26-28.47-12.83-33.46-17.69-25.21-24.57-31.55-69.69-14.02-87.03,4.33-4.29,8.04-4.69,59.6-5.18,32.25-.31,42.58-.27,49.03,3.48,1.98,1.15,3.56,2.73,3.56,2.73,4.6,4.37,6.22,9.85,7.29,14.67,2.94,13.27,4.85,21.9,3,34Z"/>
    <path class="cls-1" d="M109.47,338.51s-16.72,11.06-43.82,8.82c-1.69-.14-4.43-.47-5.51-2.34-3.08-5.31,10.15-17.93,14.51-22.71,35.79-39.21,35.23-82.45,47.81-81.46,9.97.79,14.54,28.27,14.84,30.11,3.88,24.38-5.69,52.93-27.82,67.57Z"/>
  </g>
</svg>