<?xml version="1.0" encoding="UTF-8"?>
<svg id="Layer_2" data-name="Layer 2" xmlns="http://www.w3.org/2000/svg" viewBox="0 0 141.59 554.28">
  <defs>
    <style>
      .cls-1 {
        opacity: .53;
      }

      .cls-1, .cls-2 {
        fill: #765c43;
        stroke: #765c43;
      }

      .cls-1, .cls-2, .cls-3 {
        stroke-miterlimit: 10;
      }

      .cls-2 {
        stroke-width: 2px;
      }

      .cls-3 {
        stroke: #39553f;
      }

      .cls-3, .cls-4 {
        fill: #39553f;
      }

      .cls-4, .cls-5 {
        stroke-width: 0px;
      }

      .cls-5 {
        fill: #c6a788;
      }
    </style>
  </defs>
  <g id="Krukke">
    <path class="cls-5" d="m132.4,325.14c-1.05,6.87-4.02,24.56-19,38.87-22.89,21.87-53.69,16.59-56,16.15-17.08-3.26-28.47-12.83-33.46-17.69-25.21-24.57-31.55-69.69-14.02-87.03,4.33-4.29,8.04-4.69,59.6-5.18,32.25-.31,42.58-.27,49.03,3.48,1.98,1.15,3.56,2.73,3.56,2.73,4.6,4.37,6.22,9.85,7.29,14.67,2.94,13.27,4.85,21.9,3,34Z"/>
  </g>
  <g id="Layer_3" data-name="Layer 3">
    <path class="cls-1" d="m103.71,370.81s-16.72,11.06-43.82,8.82c-1.69-.14-4.43-.47-5.51-2.34-3.08-5.31,10.15-17.93,14.51-22.71,35.79-39.21,35.23-82.45,47.81-81.46,9.97.79,14.54,28.27,14.84,30.11,3.88,24.38-5.69,52.93-27.82,67.57Z"/>
  </g>
  <g id="snore">
    <line class="cls-2" x1="16.4" y1="285.14" x2="52.4" y2="16.14"/>
    <line class="cls-2" x1="37.54" y1="271.17" x2="59.49" y2="15.36"/>
    <line class="cls-2" x1="118.63" y1="286.92" x2="73.4" y2="16.14"/>
    <line class="cls-2" x1="106.63" y1="266.92" x2="69.4" y2=".14"/>
  </g>
  <g id="blade">
    <ellipse class="cls-4" cx="23.4" cy="270.14" rx="4" ry="7"/>
    <ellipse class="cls-4" cx="30.4" cy="271.14" rx="4" ry="7" transform="translate(-44.26 8.71) rotate(-9.48)"/>
    <ellipse class="cls-4" cx="37.4" cy="271.14" rx="4" ry="7"/>
    <ellipse class="cls-4" cx="43.4" cy="271.14" rx="7" ry="4" transform="translate(-230.46 291.2) rotate(-85.1)"/>
    <ellipse class="cls-4" cx="51.4" cy="271.14" rx="4" ry="7"/>
    <ellipse class="cls-4" cx="55.4" cy="280.14" rx="4" ry="7"/>
    <ellipse class="cls-4" cx="59.4" cy="270.14" rx="7" ry="4" transform="translate(-214.83 306.23) rotate(-85.1)"/>
    <ellipse class="cls-4" cx="66.4" cy="273.14" rx="4" ry="7" transform="translate(-37.12 11.8) rotate(-7.95)"/>
    <ellipse class="cls-4" cx="66.8" cy="265.17" rx="4" ry="7" transform="translate(-104.5 52.02) rotate(-24.65)"/>
    <ellipse class="cls-4" cx="74.4" cy="271.14" rx="7" ry="4" transform="translate(-206.48 283.86) rotate(-77.25)"/>
    <ellipse class="cls-4" cx="81.4" cy="273.14" rx="4" ry="7"/>
    <ellipse class="cls-4" cx="83.4" cy="265.14" rx="4" ry="7"/>
    <ellipse class="cls-4" cx="89.4" cy="275.14" rx="4" ry="7"/>
    <ellipse class="cls-4" cx="87.4" cy="270.14" rx="4" ry="7"/>
    <ellipse class="cls-4" cx="93.4" cy="268.14" rx="4" ry="7"/>
    <ellipse class="cls-4" cx="99.4" cy="268.14" rx="7" ry="4" transform="translate(-176.26 344.25) rotate(-85.1)"/>
    <ellipse class="cls-4" cx="98.26" cy="277.06" rx="7" ry="4" transform="translate(-186.19 351.27) rotate(-85.1)"/>
    <ellipse class="cls-4" cx="105.26" cy="271.06" rx="7" ry="4" transform="translate(-173.81 352.76) rotate(-85.1)"/>
    <ellipse class="cls-4" cx="112.26" cy="267.06" rx="7" ry="4" transform="translate(-163.42 356.08) rotate(-85.1)"/>
    <ellipse class="cls-4" cx="111.26" cy="275.06" rx="7" ry="4" transform="translate(-172.3 362.4) rotate(-85.1)"/>
    <ellipse class="cls-4" cx="120.26" cy="272.06" rx="7" ry="4" transform="translate(-161.08 368.62) rotate(-85.1)"/>
    <ellipse class="cls-4" cx="78.26" cy="287.06" rx="7" ry="4" transform="translate(-214.44 340.49) rotate(-85.1)"/>
    <ellipse class="cls-4" cx="14.26" cy="273.06" rx="7" ry="4" transform="translate(-250.93 206.43) rotate(-72.91)"/>
    <ellipse class="cls-4" cx="33.33" cy="287.44" rx="7" ry="4" transform="translate(-255.91 296.08) rotate(-85.1)"/>
    <ellipse class="cls-4" cx="41.1" cy="296.44" rx="4" ry="7" transform="translate(-48.28 10.82) rotate(-9.48)"/>
    <ellipse class="cls-4" cx="33.1" cy="313.44" rx="7" ry="4" transform="translate(-271.65 233.01) rotate(-69.19)"/>
    <ellipse class="cls-4" cx="41.1" cy="328.44" rx="4" ry="7" transform="translate(-69.37 16.42) rotate(-12.36)"/>
    <line class="cls-3" x1="39.9" y1="420.64" x2="37.08" y2="273.54"/>
    <path class="cls-3" d="m54.9,459.64c-.65-.16,26.03-67.23,14-148-3.68-24.7-9.53-40.99-9.97-40.89-.8.17,17.72,53.86,11.97,119.89-3.69,42.42-15.59,69.1-16,69Z"/>
    <path class="cls-3" d="m40.9,438.64c-3.95-8.74-8.07-19.82-11-33-3.56-16-4.26-30.1-4-41-.26,10.9.44,25,4,41,2.93,13.18,7.05,24.26,11,33Z"/>
    <path class="cls-3" d="m38.9,517.64c16.03-11.92,27.16-24.63,35-36,57.41-83.31,8.32-196.6,1.77-211.15,20.38,42.94,24.51,80.29,25.23,102.15.75,22.77,1.36,49.77-12,81-14.39,33.65-37.27,54.16-50,64Z"/>
    <path class="cls-3" d="m138.24,408.32c-6.52-15.67-13.28-35.58-17.97-59.29-5.69-28.78-6.57-54.22-5.86-73.89-.7,19.67.17,45.11,5.86,73.89,4.69,23.71,11.45,43.62,17.97,59.29Z"/>
    <line class="cls-3" x1="77.9" y1="487.64" x2="84.19" y2="377.24"/>
    <path class="cls-3" d="m111.9,550.64c-9.7-30.19-10.81-54.39-10-71,.77-15.74,3.07-20.96,7-54,2.13-17.93,4.66-39.19,5-56,.43-20.79-2.13-52.42-18.08-92.17,16.73,42.76,19.11,77.27,18.08,101.17-1.99,46.27-17.85,78.08-10,135,2.19,15.89,5.54,28.71,8,37Z"/>
    <ellipse class="cls-4" cx="36.4" cy="347.14" rx="7" ry="4" transform="translate(-306.11 279.9) rotate(-72.91)"/>
    <ellipse class="cls-4" cx="35.4" cy="366.14" rx="7" ry="4" transform="translate(-332.2 352.66) rotate(-82.38)"/>
    <ellipse class="cls-4" cx="43.1" cy="387.99" rx="4" ry="7" transform="translate(-188.22 73.53) rotate(-30)"/>
    <ellipse class="cls-4" cx="38.1" cy="402.99" rx="7" ry="4" transform="translate(-366.38 387.3) rotate(-82.38)"/>
    <ellipse class="cls-4" cx="41.1" cy="420.99" rx="7" ry="4" transform="translate(-381.62 405.88) rotate(-82.38)"/>
    <ellipse class="cls-4" cx="23.77" cy="369.3" rx="3.94" ry="1.91" transform="translate(-345.42 343.87) rotate(-82.38)"/>
    <ellipse class="cls-4" cx="28.1" cy="374.99" rx="1.91" ry="3.94" transform="translate(-156.87 47.58) rotate(-25.18)"/>
    <ellipse class="cls-4" cx="24.5" cy="385.42" rx="3.94" ry="1.91" transform="translate(-360.76 358.58) rotate(-82.38)"/>
    <ellipse class="cls-4" cx="25.5" cy="396.42" rx="3.94" ry="1.91" transform="translate(-370.79 369.11) rotate(-82.38)"/>
    <ellipse class="cls-4" cx="29.94" cy="391.06" rx="1.91" ry="3.94" transform="translate(-207.5 78.89) rotate(-32.88)"/>
    <ellipse class="cls-4" cx="27.7" cy="406.07" rx="3.94" ry="1.91" transform="translate(-378.45 379.66) rotate(-82.38)"/>
    <ellipse class="cls-4" cx="30.7" cy="417.07" rx="3.94" ry="1.91" transform="translate(-386.75 392.18) rotate(-82.38)"/>
    <ellipse class="cls-4" cx="33.7" cy="410.07" rx="1.91" ry="3.94" transform="translate(-241.26 103.99) rotate(-37.24)"/>
    <ellipse class="cls-4" cx="36.7" cy="435.07" rx="3.94" ry="1.91" transform="translate(-399.39 413.74) rotate(-82.38)"/>
    <ellipse class="cls-4" cx="38.7" cy="426.07" rx="1.91" ry="3.94" transform="translate(-289.94 152.16) rotate(-45)"/>
    <ellipse class="cls-4" cx="33.36" cy="426.26" rx="3.94" ry="1.91" transform="translate(-393.56 402.79) rotate(-82.38)"/>
    <ellipse class="cls-4" cx="61.4" cy="298.14" rx="7" ry="4" transform="translate(-242.94 292.22) rotate(-77.25)"/>
    <ellipse class="cls-4" cx="65.4" cy="319.14" rx="7" ry="4" transform="translate(-253.66 253.33) rotate(-66.77)"/>
    <ellipse class="cls-4" cx="71.9" cy="305.66" rx="4" ry="7" transform="translate(-143.2 76.9) rotate(-30)"/>
    <ellipse class="cls-4" cx="66.56" cy="335.71" rx="7" ry="4" transform="translate(-275.01 357.14) rotate(-82.38)"/>
    <ellipse class="cls-4" cx="68.56" cy="353.71" rx="7" ry="4" transform="translate(-283.51 277.17) rotate(-66.77)"/>
    <ellipse class="cls-4" cx="74.56" cy="337.71" rx="4" ry="7" transform="translate(-111.68 46.3) rotate(-20.13)"/>
    <ellipse class="cls-4" cx="67.04" cy="378.39" rx="7" ry="4" transform="translate(-307.11 290.72) rotate(-66.77)"/>
    <ellipse class="cls-4" cx="73.04" cy="396.39" rx="4" ry="7" transform="translate(-27.49 6.07) rotate(-4)"/>
    <ellipse class="cls-4" cx="61.21" cy="420.17" rx="4" ry="7" transform="translate(-29.18 5.3) rotate(-4)"/>
    <ellipse class="cls-4" cx="68.21" cy="431.17" rx="4" ry="7" transform="translate(-29.93 5.81) rotate(-4)"/>
    <ellipse class="cls-4" cx="55.7" cy="442.42" rx="7" ry="4" transform="translate(-355.29 269.45) rotate(-60)"/>
    <ellipse class="cls-4" cx="58.7" cy="457.42" rx="4" ry="7" transform="translate(-31.79 5.21) rotate(-4)"/>
    <ellipse class="cls-4" cx="66.4" cy="284.14" rx="4" ry="7" transform="translate(-133.17 71.27) rotate(-30)"/>
    <ellipse class="cls-4" cx="62.94" cy="274.67" rx="4" ry="7" transform="translate(-128.9 68.27) rotate(-30)"/>
    <ellipse class="cls-4" cx="58.61" cy="281.19" rx="4" ry="7" transform="translate(-132.74 66.98) rotate(-30)"/>
    <ellipse class="cls-4" cx="45.33" cy="277.23" rx="4" ry="7" transform="translate(-132.54 59.8) rotate(-30)"/>
    <ellipse class="cls-4" cx="23.33" cy="274.23" rx="7" ry="4" transform="translate(-114.45 35.98) rotate(-25.18)"/>
    <ellipse class="cls-4" cx="75.41" cy="271.78" rx="4" ry="7" transform="translate(-205.42 245.7) rotate(-69.19)"/>
    <ellipse class="cls-4" cx="84.41" cy="303.78" rx="7" ry="4" transform="translate(-225.47 361.91) rotate(-85.1)"/>
    <ellipse class="cls-4" cx="89.41" cy="291.78" rx="4" ry="7" transform="translate(-158.33 113.58) rotate(-37.24)"/>
    <ellipse class="cls-4" cx="74.41" cy="275.78" rx="7" ry="4" transform="translate(-210.99 287.49) rotate(-77.25)"/>
    <ellipse class="cls-4" cx="88.41" cy="313.78" rx="7" ry="4" transform="translate(-231.77 375.04) rotate(-85.1)"/>
    <ellipse class="cls-4" cx="91.41" cy="306.78" rx="4" ry="7" transform="translate(-141.14 86.81) rotate(-30)"/>
    <ellipse class="cls-4" cx="91.09" cy="330.53" rx="7" ry="4" transform="translate(-246.01 393.03) rotate(-85.1)"/>
    <ellipse class="cls-4" cx="101.09" cy="341.53" rx="4" ry="7" transform="translate(-111.37 55.66) rotate(-20.13)"/>
    <ellipse class="cls-4" cx="96.09" cy="364.53" rx="7" ry="4" transform="translate(-275.31 429.1) rotate(-85.1)"/>
    <ellipse class="cls-4" cx="105.15" cy="375.19" rx="4" ry="7" transform="translate(-93.89 40.21) rotate(-15.06)"/>
    <ellipse class="cls-4" cx="97.31" cy="392.77" rx="7" ry="4" transform="translate(-302.34 456.16) rotate(-85.1)"/>
    <ellipse class="cls-4" cx="104.31" cy="408.77" rx="4" ry="7" transform="translate(-102.64 41.15) rotate(-15.06)"/>
    <ellipse class="cls-4" cx="93.31" cy="420.77" rx="7" ry="4" transform="translate(-317.75 291.2) rotate(-60)"/>
    <ellipse class="cls-4" cx="97.62" cy="438.82" rx="7" ry="4" transform="translate(-346.05 511.3) rotate(-86.74)"/>
    <ellipse class="cls-4" cx="83.62" cy="454.82" rx="7" ry="4" transform="translate(-233.51 118.25) rotate(-32.88)"/>
    <ellipse class="cls-4" cx="83.21" cy="473.61" rx="7" ry="4" transform="translate(-395.78 516.03) rotate(-85.1)"/>
    <ellipse class="cls-4" cx="68.21" cy="496.61" rx="7" ry="4" transform="translate(-432.42 522.12) rotate(-85.1)"/>
    <ellipse class="cls-4" cx="51.21" cy="512.61" rx="7" ry="4" transform="translate(-463.9 519.81) rotate(-85.1)"/>
    <ellipse class="cls-4" cx="41.21" cy="512.61" rx="7" ry="4" transform="translate(-301.78 129.43) rotate(-37.24)"/>
    <ellipse class="cls-4" cx="53.21" cy="500.61" rx="7" ry="4" transform="translate(-128.26 31.02) rotate(-15.06)"/>
    <ellipse class="cls-4" cx="67.21" cy="482.61" rx="7" ry="4" transform="translate(-91.1 21.78) rotate(-11.03)"/>
    <ellipse class="cls-4" cx="86.51" cy="380.62" rx="1.91" ry="3.94" transform="translate(-192.77 107.93) rotate(-32.88)"/>
    <ellipse class="cls-4" cx="85.51" cy="390.62" rx="1.91" ry="3.94" transform="translate(-198.36 108.99) rotate(-32.88)"/>
    <ellipse class="cls-4" cx="80.51" cy="402.62" rx="3.94" ry="1.91" transform="translate(-321.22 317.77) rotate(-66.77)"/>
    <ellipse class="cls-4" cx="80.15" cy="418.44" rx="3.94" ry="1.91" transform="translate(-344.76 387.35) rotate(-74.97)"/>
    <ellipse class="cls-4" cx="84.15" cy="410.44" rx="1.91" ry="3.94" transform="translate(-103.77 35.97) rotate(-15.06)"/>
    <ellipse class="cls-4" cx="83.35" cy="430.06" rx="1.91" ry="3.94" transform="translate(-108.89 36.43) rotate(-15.06)"/>
    <ellipse class="cls-4" cx="82.35" cy="442.06" rx="1.91" ry="3.94" transform="translate(-112.05 36.59) rotate(-15.06)"/>
    <ellipse class="cls-4" cx="77.95" cy="450.5" rx="3.94" ry="1.91" transform="translate(-371.09 364.57) rotate(-69.35)"/>
    <ellipse class="cls-4" cx="77.16" cy="466.62" rx="3.94" ry="1.91" transform="translate(-386.69 374.26) rotate(-69.35)"/>
    <ellipse class="cls-4" cx="79.36" cy="482.95" rx="1.91" ry="3.94" transform="translate(-122.77 37.21) rotate(-15.06)"/>
    <ellipse class="cls-4" cx="76.36" cy="487.95" rx="3.94" ry="1.91" transform="translate(-412.74 419.35) rotate(-73.12)"/>
    <ellipse class="cls-4" cx="104.64" cy="290.36" rx="4" ry="7" transform="translate(-111.55 70.09) rotate(-24.65)"/>
    <ellipse class="cls-4" cx="104.64" cy="311.36" rx="4" ry="7"/>
    <ellipse class="cls-4" cx="112.64" cy="323.36" rx="4" ry="7" transform="translate(-172.7 134.07) rotate(-37.24)"/>
    <ellipse class="cls-4" cx="110.4" cy="354.14" rx="7" ry="4" transform="translate(-260.25 368.94) rotate(-74.97)"/>
    <ellipse class="cls-4" cx="118.74" cy="371.93" rx="4" ry="7" transform="translate(-92.57 43.63) rotate(-15.06)"/>
    <ellipse class="cls-4" cx="108.74" cy="390.93" rx="7" ry="4" transform="translate(-295.42 354.82) rotate(-69.35)"/>
    <ellipse class="cls-4" cx="115.91" cy="406.09" rx="4" ry="7" transform="translate(-101.55 44.07) rotate(-15.06)"/>
    <ellipse class="cls-4" cx="113.28" cy="425.98" rx="4" ry="7" transform="translate(-79.41 29.54) rotate(-11.03)"/>
    <ellipse class="cls-4" cx="109.4" cy="446.14" rx="4" ry="7"/>
    <ellipse class="cls-4" cx="103.65" cy="426.54" rx="7" ry="4" transform="translate(-332.04 373.11) rotate(-69.35)"/>
    <ellipse class="cls-4" cx="105.19" cy="471.11" rx="4" ry="7" transform="translate(-88.2 28.83) rotate(-11.03)"/>
    <ellipse class="cls-4" cx="97.19" cy="490.11" rx="7" ry="4" transform="translate(-402.44 484.79) rotate(-78.17)"/>
    <ellipse class="cls-4" cx="105.11" cy="503.31" rx="4" ry="7" transform="translate(-127.18 44.6) rotate(-15.06)"/>
    <ellipse class="cls-4" cx="101.11" cy="522.31" rx="7" ry="4" transform="translate(-430.84 514.22) rotate(-78.17)"/>
    <ellipse class="cls-4" cx="105.11" cy="539.31" rx="7" ry="4" transform="translate(-444.3 531.65) rotate(-78.17)"/>
    <ellipse class="cls-4" cx="115.11" cy="548.31" rx="4" ry="7" transform="translate(-322.98 199.07) rotate(-39.58)"/>
    <ellipse class="cls-4" cx="117.87" cy="298.89" rx="4" ry="7" transform="translate(-113.91 76.38) rotate(-24.65)"/>
    <ellipse class="cls-4" cx="113.87" cy="310.89" rx="7" ry="4" transform="translate(-205.61 397.76) rotate(-85.1)"/>
    <ellipse class="cls-4" cx="122.07" cy="341.43" rx="4" ry="7" transform="translate(-131.27 82.01) rotate(-24.65)"/>
    <ellipse class="cls-4" cx="126.87" cy="362.19" rx="4" ry="7" transform="translate(-193.29 150.6) rotate(-37.24)"/>
    <ellipse class="cls-4" cx="126.29" cy="383.35" rx="4" ry="7" transform="translate(-26.45 9.75) rotate(-4)"/>
    <ellipse class="cls-4" cx="136.29" cy="395.35" rx="4" ry="7" transform="translate(-211.44 163.06) rotate(-37.24)"/>
    <ellipse class="cls-4" cx="135.9" cy="410.93" rx="4" ry="7" transform="translate(-28.35 10.49) rotate(-4)"/>
    <path class="cls-3" d="m15.9,363.64c-4.81-15.91-6.45-29.38-7-39-.49-8.56-.2-15.49,0-20,.58-13.2,2.2-24.25,3.72-32.37-2.82,13.15-5.22,31.15-3.72,52.37,1.09,15.34,3.94,28.52,7,39Z"/>
    <ellipse class="cls-4" cx="7.18" cy="296.74" rx="7" ry="4" transform="translate(-272.74 198.01) rotate(-69.19)"/>
    <ellipse class="cls-4" cx="12.18" cy="317.74" rx="4" ry="7" transform="translate(-108.62 23.61) rotate(-20.13)"/>
    <ellipse class="cls-4" cx="10.18" cy="282.74" rx="7" ry="4" transform="translate(-196.94 90.01) rotate(-45)"/>
    <ellipse class="cls-4" cx="47.18" cy="266.74" rx="7" ry="4" transform="translate(-218.91 216.06) rotate(-69.19)"/>
    <ellipse class="cls-4" cx="75.18" cy="265.74" rx="7" ry="4" transform="translate(-199.93 241.59) rotate(-69.19)"/>
    <ellipse class="cls-4" cx="14.18" cy="337.74" rx="4" ry="7" transform="translate(-71.98 10.87) rotate(-12.36)"/>
    <ellipse class="cls-4" cx="8.18" cy="353.74" rx="7" ry="4" transform="translate(-325.38 235.69) rotate(-69.19)"/>
    <ellipse class="cls-4" cx="17.18" cy="363.74" rx="4" ry="7" transform="translate(-77.48 12.11) rotate(-12.36)"/>
  </g>
</svg>